<svg width="129" height="120" viewBox="0 0 129 120" fill="none" xmlns="http://www.w3.org/2000/svg">
<path d="M69.7756 28.7401C70.4448 30.3769 71.599 31.7677 73.0819 32.7241C74.5648 33.6805 76.3047 34.1564 78.066 34.0872C81.6093 33.8817 85.0026 32.5817 87.7813 30.3654C91.1481 28.1159 93.8452 24.9932 95.586 21.3289C98.5492 14.4378 94.4363 2.26452 85.4173 6.60398C79.2481 9.54571 67.2658 21.0851 69.7756 28.7401Z" fill="#F0B59A"/>
<path d="M37.3914 16.5347C38.1201 20.0778 40.2736 23.6859 43.7549 24.6611C45.2535 24.9942 46.8145 24.9082 48.2677 24.4124C49.721 23.9166 51.0108 23.0301 51.9968 21.8494C53.9475 19.4516 55.0824 16.4899 55.2352 13.398C55.7857 6.89692 51.6567 -1.45695 43.9007 0.217071C37.3914 1.59855 36.3065 11.3014 37.3914 16.5347Z" fill="#EADACD"/>
<path d="M49.8106 49.9025C51.4962 52.7605 54.1171 54.9432 57.2266 56.0785C59.5164 56.6704 61.9392 56.456 64.0905 55.471C66.2418 54.486 67.9913 52.79 69.0469 50.6664C73.4026 41.4511 64.3836 35.4051 56.4818 34.3162C47.1065 33.016 45.3902 43.2227 49.8106 49.9025Z" fill="#EADACD"/>
<path d="M18.9163 50.4223C19.8616 51.6154 21.0529 52.5891 22.4085 53.2764C23.7641 53.9638 25.2518 54.3485 26.7695 54.4042C36.8573 54.518 37.4402 41.4021 28.7612 38.2653C21.7985 35.8111 13.6376 43.9212 18.9163 50.4223Z" fill="#BBBEA0"/>
<path d="M35.7722 76.1813C35.4071 78.5398 35.6317 80.9524 36.4259 83.2022C37.2201 85.4519 38.5591 87.4682 40.3222 89.0697C43.8359 92.1902 49.4384 93.2791 53.276 90.5649C54.7282 89.431 55.8556 87.9316 56.5438 86.2189C57.232 84.5062 57.4565 82.6412 57.1945 80.8133C56.6408 77.1598 54.9981 73.7602 52.4826 71.0617C49.9404 68.1362 46.6858 64.3494 42.6701 65.9747C39.0916 67.4862 36.3551 72.6057 35.7722 76.1813Z" fill="#EADACD"/>
<path d="M80.2682 63.1796C78.315 65.6333 77.3294 68.7225 77.4993 71.8586C77.6181 73.4147 78.1982 74.8995 79.165 76.1218C80.1317 77.3441 81.4407 78.248 82.9237 78.7172C86.826 79.6923 90.5988 76.8481 93.3353 73.9227C95.5221 71.7424 97.2703 69.16 98.4844 66.3164C99.0893 64.8931 99.4011 63.3618 99.4011 61.8144C99.4011 60.2671 99.0893 58.7357 98.4844 57.3124C93.7563 47.6096 83.9438 58.1738 80.2682 63.1796Z" fill="#BBBEA0"/>
<path d="M9.63769 99.5693C7.70113 99.7924 5.85291 100.506 4.26671 101.643C2.68052 102.781 1.40847 104.304 0.570099 106.07C-0.116641 107.916 -0.184852 109.936 0.3758 111.824C1.00498 113.71 2.09959 115.406 3.55771 116.753C5.01583 118.1 6.78997 119.054 8.71478 119.528C12.5969 120.424 16.6639 120.037 20.3084 118.422C23.3504 117.314 25.9714 115.28 27.8054 112.604C35.2052 100.772 17.2804 98.3178 9.63769 99.5693Z" fill="#FEA57D"/>
<path d="M43.868 113.742C44.3003 114.683 44.9168 115.527 45.681 116.224C46.4451 116.92 47.3411 117.456 48.3156 117.797C49.2901 118.139 50.3233 118.281 51.3534 118.213C52.3835 118.146 53.3895 117.871 54.3115 117.405C55.2335 116.939 56.0526 116.291 56.72 115.501C57.3874 114.71 57.8895 113.793 58.1963 112.804C58.503 111.814 58.6082 110.773 58.5056 109.742C58.403 108.711 58.0947 107.711 57.599 106.802C52.8709 98.3347 39.9819 104.95 43.868 113.742Z" fill="#FEA57D"/>
<path d="M2.48468 82.1741C2.91697 83.115 3.53355 83.9589 4.29766 84.6556C5.06177 85.3523 5.95777 85.8875 6.9323 86.2292C7.90683 86.571 8.93997 86.7123 9.97007 86.6448C11.0002 86.5774 12.0062 86.3024 12.9282 85.8364C13.8502 85.3704 14.6693 84.7229 15.3367 83.9324C16.0041 83.1419 16.5062 82.2247 16.813 81.2354C17.1197 80.246 17.2249 79.2048 17.1223 78.1738C17.0197 77.1428 16.7114 76.1431 16.2157 75.2342C11.4876 66.7665 -1.40144 73.3814 2.48468 82.1741Z" fill="#EADACD"/>
<path d="M7.91584 23.2405C8.34813 24.1814 8.9647 25.0253 9.72881 25.722C10.4929 26.4187 11.3889 26.9539 12.3635 27.2956C13.338 27.6374 14.3711 27.7787 15.4012 27.7113C16.4313 27.6438 17.4373 27.3688 18.3593 26.9028C19.2813 26.4368 20.1004 25.7893 20.7679 24.9988C21.4353 24.2084 21.9374 23.2911 22.2441 22.3018C22.5509 21.3125 22.6561 20.2713 22.5535 19.2402C22.4508 18.2092 22.1425 17.2095 21.6468 16.3006C16.9187 7.83295 4.02971 14.4478 7.91584 23.2405Z" fill="#F0B59A"/>
<path d="M103.471 76.428C103.903 77.3689 104.52 78.2128 105.284 78.9095C106.048 79.6062 106.944 80.1414 107.919 80.4831C108.893 80.8249 109.926 80.9662 110.956 80.8988C111.987 80.8313 112.993 80.5563 113.915 80.0903C114.837 79.6243 115.656 78.9768 116.323 78.1863C116.99 77.3959 117.493 76.4786 117.799 75.4893C118.106 74.5 118.211 73.4588 118.109 72.4277C118.006 71.3967 117.698 70.397 117.202 69.4881C112.474 61.0204 99.5849 67.6353 103.471 76.428Z" fill="#FEA57D"/>
<path d="M107.471 30.1989C107.106 32.5574 107.331 34.97 108.125 37.2197C108.919 39.4695 110.258 41.4858 112.021 43.0873C115.535 46.2078 121.138 47.2967 124.975 44.5825C126.427 43.4485 127.555 41.9491 128.243 40.2365C128.931 38.5238 129.156 36.6588 128.894 34.8309C128.34 31.1774 126.697 27.7777 124.182 25.0793C121.64 22.1538 118.385 18.367 114.369 19.9922C110.791 21.5037 108.054 26.6233 107.471 30.1989Z" fill="#BBBEA0"/>
</svg>
