<svg width="46" height="41" viewBox="0 0 46 41" fill="none" xmlns="http://www.w3.org/2000/svg">
<path fill-rule="evenodd" clip-rule="evenodd" d="M23.3543 4.90832C22.8657 4.83468 22.9739 4.5004 23.4539 4.02921C23.6068 3.87792 24.2961 3.54631 24.4713 3.54337C24.815 3.53756 25.1513 3.53347 25.4369 3.55516C25.6067 3.57503 27.4682 4.22642 28.1477 4.4025C28.7909 4.58715 29.35 4.82235 29.885 5.07247C30.9918 5.57632 32.1399 6.05042 33.2978 6.52685C33.5528 6.63257 33.7814 6.76297 33.9882 6.91232C34.6908 7.43164 35.5747 7.80989 36.5281 8.12719C36.683 8.17972 36.822 8.25599 37.0537 8.23205C37.433 8.1917 39.9074 9.15318 40.145 9.37362C40.7691 9.86385 41.4692 10.2947 42.1496 10.7501C42.2437 10.8139 42.4001 10.8323 42.4102 10.9743C42.4369 11.3029 42.7232 11.3644 42.9545 11.4834C43.2777 11.6468 43.5761 11.8421 43.8481 12.0621C43.982 12.1734 44.0305 12.3693 44.1058 12.539C44.1718 12.6908 43.7907 12.9789 43.7016 12.9938C43.449 13.0334 43.4341 13.2366 43.3252 13.376C43.2863 13.4236 43.2402 13.4867 43.198 13.5197C43.1136 13.5857 40.4807 13.4496 40.2733 13.3449C40.2479 13.3371 39.4545 13.0942 38.5972 12.8326C37.7492 12.5749 36.8559 12.3064 36.6614 12.2617C36.4604 12.2154 36.3333 12.0902 36.1872 11.9865C36.1168 11.9524 33.5748 11.1144 33.4849 11.0619C33.0255 10.8246 32.4468 10.6847 32.1793 10.2762C32.1267 10.1964 32.0151 10.1629 31.9151 10.1235C31.0476 9.77671 30.3026 9.31962 29.5383 8.88551C29.1464 8.66614 28.7011 8.48396 28.2847 8.28112C28.2114 8.24466 28.1686 8.18102 28.1118 8.13299C28.0339 8.07303 27.9725 8.0015 27.8769 7.95799C26.8681 7.48788 26.0327 6.90926 24.9728 6.46656C24.7169 6.3641 23.9875 5.61609 23.7073 5.50093C23.5413 5.43717 23.5459 4.93685 23.3543 4.90832Z" fill="#FD8A62"/>
<path fill-rule="evenodd" clip-rule="evenodd" d="M15.0544 10.7489C14.7008 10.5973 14.8204 10.1605 15.1979 9.5211C15.3179 9.31757 15.8429 8.90564 15.9766 8.92586C16.24 8.96914 16.5014 9.01796 16.7256 9.10528C16.8592 9.15019 18.3207 10.5546 18.8346 11.0312C19.3373 11.4871 19.7424 12.0077 20.1314 12.5398C20.9147 13.6166 21.7201 14.6818 22.4799 15.7546C22.6495 15.9952 22.7882 16.2495 22.896 16.5174C23.2635 17.4333 23.809 18.2521 24.4197 19.0453C24.5211 19.1743 24.5957 19.3224 24.7878 19.4078C25.1087 19.5538 26.6052 21.7568 26.6999 22.079C26.9598 22.8743 27.2996 23.6336 27.6025 24.4067C27.6446 24.5163 27.7557 24.6057 27.6917 24.7492C27.5434 25.0834 27.734 25.2804 27.8575 25.5086C28.0232 25.8216 28.1782 26.1422 28.2808 26.4834C28.3317 26.6522 28.2639 26.868 28.2316 27.071C28.2022 27.2557 27.7275 27.3699 27.65 27.3427C27.4277 27.2663 27.2991 27.4637 27.1291 27.5551C27.07 27.5804 26.9928 27.6145 26.9438 27.6369C26.8304 27.6719 24.926 26.2445 24.8042 26.052C24.789 26.0341 24.3068 25.4204 23.7863 24.7601C23.2729 24.1152 22.7304 23.4418 22.6095 23.3142C22.478 23.1778 22.4478 22.9984 22.3908 22.8298C22.3626 22.7473 20.8036 20.8506 20.758 20.7722C20.5188 20.3432 20.1379 19.9856 20.115 19.4612C20.1091 19.3589 20.0393 19.2811 19.9797 19.2004C19.4673 18.518 19.0906 17.7724 18.6749 17.0463C18.4641 16.675 18.1841 16.3404 17.9424 15.9828C17.898 15.9199 17.8926 15.8377 17.863 15.7644C17.8275 15.6748 17.8041 15.5766 17.7465 15.4986C17.138 14.6833 16.6781 13.7754 15.9829 13.0256C15.8262 12.8495 15.4311 11.777 15.2344 11.5884C15.1274 11.4796 15.1985 10.8109 15.0544 10.7489Z" fill="#FD8A62"/>
<path fill-rule="evenodd" clip-rule="evenodd" d="M5.1802 13.271C4.96512 12.9595 5.24084 12.6311 5.80359 12.2513C5.98256 12.1303 6.56678 12.0265 6.66353 12.1113C6.85267 12.2814 7.0379 12.4554 7.17795 12.645C7.26429 12.7517 7.82969 14.7305 8.03566 15.4109C8.24142 16.0673 8.34354 16.7326 8.42821 17.3999C8.59644 18.7485 8.78691 20.0978 8.93837 21.4312C8.97168 21.7298 8.97503 22.0252 8.94842 22.3172C8.85654 23.3149 8.9451 24.3154 9.09547 25.3256C9.12162 25.491 9.11869 25.6598 9.23427 25.8318C9.42589 26.1219 9.68676 28.8281 9.62725 29.1618C9.50094 29.9986 9.45244 30.8434 9.36918 31.682C9.35668 31.8004 9.40689 31.9354 9.29692 32.031C9.04129 32.2539 9.10927 32.5244 9.11153 32.7889C9.1117 33.1499 9.10024 33.5123 9.03904 33.8669C9.00894 34.0424 8.86583 34.2004 8.75603 34.3647C8.65608 34.5141 8.23527 34.3784 8.18568 34.3156C8.0426 34.1366 7.85939 34.2477 7.68767 34.2441C7.63066 34.2371 7.55577 34.2288 7.50792 34.2242C7.40419 34.1987 6.5 31.9782 6.48431 31.7462C6.47974 31.7227 6.3558 30.9362 6.22096 30.0892C6.08542 29.2594 5.93874 28.3896 5.89673 28.2158C5.85003 28.0288 5.90092 27.8543 5.92621 27.6759C5.93836 27.5885 5.501 25.1234 5.49772 25.031C5.48804 24.5301 5.33717 24.0219 5.53721 23.5443C5.57507 23.4504 5.55256 23.3464 5.53923 23.2449C5.42004 22.3822 5.43378 21.5312 5.40883 20.678C5.39743 20.2426 5.31638 19.8053 5.27501 19.3666C5.26624 19.2886 5.29615 19.2128 5.30337 19.1328C5.31272 19.0355 5.33516 18.9365 5.32226 18.8383C5.18275 17.8096 5.19864 16.7727 4.96364 15.7587C4.91362 15.5239 5.04889 14.3731 4.97262 14.1071C4.93372 13.957 5.26775 13.3981 5.1802 13.271Z" fill="#FD8A62"/>
</svg>
