<svg width="82" height="82" viewBox="0 0 82 82" fill="none" xmlns="http://www.w3.org/2000/svg">
<g clip-path="url(#clip0_476_7547)">
<path fill-rule="evenodd" clip-rule="evenodd" d="M38.3811 58.9665C47.6349 63.981 58.2187 67.6641 68.712 66.9425C72.5301 66.6804 76.0644 65.5795 79.6929 64.4849C79.9474 64.4086 80.0925 64.1388 80.0161 63.883C79.9385 63.6271 79.6687 63.4821 79.4129 63.5597C75.8544 64.6326 72.3901 65.7207 68.6459 65.9778C58.3014 66.6893 47.8742 63.0264 38.7604 58.0731L38.8253 57.9268C39.5342 56.3397 39.0951 54.0234 37.937 51.5925C36.2774 48.1079 33.1873 44.3636 30.4064 42.2955C29.1567 41.3664 27.959 40.7759 26.9714 40.6524C26.2015 40.5557 25.5409 40.7288 25.0306 41.1895C23.9437 42.172 23.9819 43.8482 24.8435 45.7916C26.6443 49.8566 31.9337 55.2095 34.8023 56.9264C35.6983 57.4622 36.6096 57.9891 37.5348 58.502C37.4177 58.7845 37.3019 59.0607 37.1772 59.3242C36.8195 60.0738 36.3805 60.7292 35.5341 61.1785C34.2143 61.8772 32.6324 61.9981 31.0135 61.8174C28.4872 61.5336 25.8718 60.5065 23.9462 59.6245C13.2225 54.7119 7.91154 46.1912 5.06324 37.6374C2.18822 28.9984 1.81151 20.3186 0.960074 15.1985C0.916802 14.9351 0.667354 14.7582 0.403906 14.8014C0.140458 14.8447 -0.0377184 15.0942 0.00682591 15.3576C0.86335 20.5107 1.25151 29.2465 4.14689 37.9429C7.069 46.7245 12.5352 55.4603 23.5428 60.504C25.5486 61.4228 28.2747 62.483 30.9053 62.7783C32.7266 62.9819 34.502 62.819 35.9872 62.0325C37.3197 61.3261 37.8492 60.224 38.3811 58.9665ZM37.9102 57.6048L37.9433 57.5322C38.5631 56.145 38.077 54.1341 37.0639 52.0087C35.4692 48.6603 32.5026 45.0598 29.8286 43.0718C28.9123 42.3897 28.0354 41.8997 27.2641 41.6935C26.6278 41.5242 26.0755 41.5484 25.6796 41.9073C25.3042 42.2446 25.1553 42.7091 25.1616 43.25C25.168 43.8851 25.3793 44.6143 25.7267 45.3996C27.4576 49.3055 32.542 54.4472 35.2987 56.0966C36.1552 56.6082 37.0257 57.1122 37.9102 57.6048Z" fill="#0B1E5B"/>
<path fill-rule="evenodd" clip-rule="evenodd" d="M80.9197 62.989C80.8777 63.1965 80.7364 63.4574 80.5812 63.7361C80.2121 64.4004 79.6865 65.1081 79.4523 65.4517C79.3021 65.6731 79.3607 65.9735 79.5808 66.1237C79.8023 66.2738 80.1026 66.2166 80.2528 65.9951C80.5392 65.5739 81.2379 64.6295 81.6133 63.8468C81.8144 63.4268 81.9188 63.0387 81.8959 62.7599C81.8577 62.2852 81.4822 61.9887 80.7377 62.0065C79.857 62.0281 78.2216 62.4698 76.8522 61.939C76.604 61.8423 76.3227 61.967 76.2273 62.2152C76.1306 62.4647 76.254 62.7447 76.5034 62.8414C77.8092 63.3467 79.3314 63.1036 80.3559 63.0018C80.5506 62.9827 80.7823 62.9852 80.9197 62.989Z" fill="#0B1E5B"/>
</g>
<defs>
<clipPath id="clip0_476_7547">
<rect width="82" height="82" fill="white"/>
</clipPath>
</defs>
</svg>
