<svg width="120" height="52" viewBox="0 0 120 52" fill="none" xmlns="http://www.w3.org/2000/svg">
<path d="M115.284 18.7424C115.258 18.6589 115.145 18.5703 115.069 18.5595C113.508 18.5498 111.954 18.5626 110.396 18.5646C110.31 18.5508 110.22 18.5657 110.143 18.6072C110.035 18.6691 109.999 18.7306 109.968 18.7941L109.814 19.3382C109.806 19.3694 109.791 19.3986 109.772 19.4248C109.606 19.6041 109.464 19.5615 109.342 19.4673C108.976 19.0221 108.619 18.8438 108.231 18.6697C107.407 18.3075 106.582 18.2347 105.767 18.2496C105.115 18.2803 104.465 18.3479 103.829 18.6481C103.258 18.9181 102.726 19.2711 102.257 19.6922C101.788 20.1133 101.382 20.6035 101.055 21.1409C100.729 21.6788 100.483 22.2638 100.326 22.8714C100.219 23.272 100.143 23.6808 100.097 24.0927C100.001 24.9092 100.056 25.7919 100.188 26.5204C100.253 26.881 100.33 27.1894 100.43 27.4906C100.531 27.7918 100.654 28.0859 100.797 28.3692C100.942 28.6525 101.108 28.925 101.256 29.1366C101.404 29.3482 101.536 29.4993 101.678 29.6396C101.819 29.78 101.971 29.9111 102.131 30.0295C102.644 30.3988 103.098 30.5889 103.607 30.7595C104.999 31.2118 106.388 31.1365 107.716 30.4793C108.042 30.3123 108.359 30.0418 108.694 29.7933C108.929 29.6074 109.201 29.5464 109.412 29.6822C109.506 29.7677 109.543 29.8589 109.559 29.945C109.566 31.0879 109.574 32.2256 109.581 33.3655C109.589 33.8747 109.504 34.4054 109.247 34.8603C109.097 35.1364 108.895 35.3864 108.658 35.5939C108.42 35.8019 108.144 35.9673 107.849 36.0821C106.968 36.4074 106.082 36.3705 105.276 36.0488C104.973 35.9387 104.688 35.7839 104.432 35.5903C104.176 35.3972 103.949 35.1651 103.763 34.9054C103.577 34.6457 103.43 34.3572 103.33 34.0545C103.229 33.7517 103.176 33.4336 103.17 33.1144L101.649 33.1851C101.579 33.5381 101.475 33.8849 101.339 34.2189C101.202 34.5529 101.034 34.8736 100.834 35.1743C100.635 35.475 100.406 35.7558 100.168 36.0083C99.9311 36.2609 99.6861 36.4858 99.4318 36.6994C99.1775 36.9135 98.9144 37.1159 98.642 37.3064C98.3696 37.4965 98.0884 37.6737 97.77 37.8525C97.4521 38.0318 97.097 38.2122 96.7347 38.3761C95.9914 38.7127 95.2373 38.9719 94.4831 39.1624C93.4432 39.4273 92.3861 39.625 91.3208 39.7551C90.255 39.8847 89.1809 39.9467 88.1084 39.9355C87.0359 39.9242 85.9643 39.8402 85.0112 39.7254C84.0586 39.6112 83.2249 39.4662 82.3963 39.3007C81.5672 39.1353 80.7428 38.9498 79.938 38.7536C79.1337 38.5574 78.3506 38.35 77.5691 38.1348C76.7876 37.9196 76.0081 37.6968 75.0116 37.4038C74.0145 37.1107 72.8003 36.7475 71.5872 36.3797C70.3735 36.0124 69.162 35.641 68.3489 35.3941C67.5358 35.1477 67.1223 35.0253 66.7068 34.9085C66.2912 34.7917 65.8746 34.6795 64.9623 34.4587C64.0505 34.2368 62.6435 33.9059 61.2231 33.6447C59.8027 33.3834 58.3689 33.1913 56.9294 33.0658C55.4898 32.9403 54.0446 32.8808 52.9545 32.8655C51.8649 32.8501 51.1299 32.8793 50.3964 32.9331C49.6635 32.9869 48.9321 33.0658 48.0239 33.2072C47.1158 33.348 46.0303 33.5519 44.9567 33.8086C43.8837 34.0647 42.8236 34.3741 41.78 34.7322C40.7369 35.0898 39.7104 35.496 38.5934 35.9991C37.4764 36.5022 36.2684 37.1015 35.0837 37.7429C33.899 38.3843 32.7376 39.0666 31.602 39.79C30.4669 40.5133 29.3571 41.2766 28.2769 42.0783C32.0093 44.0342 35.7422 45.9901 39.4752 47.946C39.9931 47.4132 40.5353 46.903 41.0982 46.4168C41.6611 45.9312 42.2462 45.4691 42.8499 45.0347C43.4542 44.5993 44.0775 44.191 44.7324 43.7991C45.3873 43.4072 46.0737 43.0322 46.7736 42.6828C47.4735 42.3335 48.1857 42.0102 48.7786 41.7612C49.3715 41.5128 49.8449 41.3391 50.3236 41.1829C50.8022 41.0261 51.2876 40.8878 51.7765 40.7669C52.266 40.6465 52.7596 40.5446 53.3618 40.4436C53.9645 40.3427 54.6747 40.2428 55.3875 40.1624C56.1003 40.0815 56.8151 40.019 57.4726 39.9816C58.1301 39.9442 58.7297 39.9314 59.3287 39.9401C59.9278 39.9488 60.5269 39.98 61.5544 40.0917C62.5815 40.2034 64.0376 40.396 65.4848 40.6342C66.9326 40.8719 68.3727 41.1557 69.5445 41.3832C70.7157 41.6111 71.6182 41.7828 72.5207 41.9544C73.4237 42.126 74.3262 42.2976 75.3951 42.4948C76.464 42.692 77.6988 42.9154 78.9404 43.0927C80.9919 43.3826 83.0688 43.5716 85.1136 43.5511C85.9235 43.5394 86.7324 43.4815 87.5419 43.4231C89.413 43.2504 91.2821 42.8616 93.1108 42.2694C94.0154 41.9769 94.9049 41.6383 95.8002 41.2044C96.6959 40.7705 97.5984 40.2418 98.4301 39.6199C99.2617 38.998 100.024 38.2828 100.701 37.495C101.377 36.7076 101.967 35.8475 102.459 34.9356C102.585 35.2635 102.74 35.5806 102.922 35.8818C103.104 36.1825 103.313 36.4678 103.545 36.7322C103.778 36.9965 104.034 37.2409 104.31 37.4611C104.814 37.8607 105.315 38.1107 105.817 38.2793C106.355 38.4565 106.915 38.5692 107.48 38.6143C108.599 38.7034 109.781 38.5272 110.786 38.0856C111.282 37.8653 111.724 37.58 112.108 37.2296C112.49 36.8797 112.814 36.4653 113.061 36.0104C113.307 35.5549 113.477 35.0591 113.562 34.5493C113.632 34.0842 113.675 33.6175 113.674 33.1503L113.701 20.4104C113.695 20.2295 113.755 20.0487 113.951 19.9063C114.005 19.8689 114.065 19.8412 114.129 19.8238L114.964 19.6271C115.006 19.6189 115.047 19.6051 115.086 19.5846C115.273 19.4663 115.277 19.3802 115.302 19.2818L115.304 18.8382C115.304 18.8049 115.297 18.7726 115.284 18.7424ZM109.418 26.2719C109.317 26.5619 109.165 26.8344 108.971 27.0736C108.777 27.3134 108.542 27.5198 108.28 27.6822C107.916 27.9168 107.515 28.0603 107.117 28.113C106.911 28.1407 106.701 28.1443 106.515 28.1335C106.161 28.1125 105.859 28.0372 105.541 27.8948C105.393 27.8272 105.249 27.7452 105.115 27.6515C104.984 27.5536 104.862 27.445 104.75 27.3262C103.995 26.5193 103.91 25.6131 103.942 24.733C103.961 24.3288 104.005 23.919 104.094 23.5133C104.136 23.3125 104.189 23.1137 104.235 22.9595C104.322 22.6695 104.401 22.4949 104.523 22.2746C104.68 22.0026 104.877 21.7346 105.185 21.4621C106.038 20.7142 106.907 20.6655 107.814 20.9293C108.092 21.0169 108.373 21.1527 108.642 21.355C108.834 21.4923 109.004 21.6598 109.143 21.8494C109.431 22.2423 109.572 22.7141 109.566 23.1685L109.569 25.3677C109.57 25.6751 109.519 25.982 109.418 26.2719Z" fill="#007840"/>
<path d="M34.6686 33.3788C34.7875 33.2062 34.8314 33.0059 34.6215 32.7758C34.4468 32.6304 34.2437 32.5899 34.0111 32.7651C33.0104 33.5919 31.9989 34.2696 30.9827 34.8347C30.3071 35.203 29.5948 35.5063 28.8603 35.7368C28.1253 35.9679 27.3671 36.1267 26.6005 36.2097C25.8345 36.2926 25.0597 36.3003 24.2301 36.2317C23.4005 36.1625 22.5156 36.0176 21.6539 35.787C20.7923 35.556 19.9534 35.2404 19.1538 34.846C18.3547 34.4515 17.5943 33.9792 16.912 33.4643C16.2297 32.949 15.625 32.3911 15.0781 31.783C14.5313 31.1744 14.0423 30.5141 13.621 29.8143C12.7728 28.403 12.2415 26.9194 11.9789 25.4856C11.8435 24.7627 11.7623 24.0302 11.739 23.2956C11.7153 22.561 11.7494 21.8248 11.8367 21.1163C11.9241 20.4078 12.0647 19.7275 12.2673 19.0651C12.4694 18.4028 12.7325 17.7588 13.053 17.1436C13.3729 16.5283 13.7497 15.9423 14.1575 15.4136C14.5659 14.8849 15.0058 14.4141 15.4823 13.9833C15.9589 13.5525 16.4727 13.1616 17.0154 12.8158C17.5587 12.4706 18.1308 12.1693 18.7237 11.9301C19.9219 11.4465 21.1939 11.2175 22.4515 11.2426C23.0867 11.2554 23.7204 11.3333 24.2916 11.4532C24.8622 11.573 25.3714 11.7344 25.8598 11.9419C26.3488 12.1488 26.8181 12.4024 27.258 12.6975C27.6984 12.9926 28.1098 13.3296 28.4861 13.7021L35.8853 3.48361L13.7937 3.46875C12.916 4.21463 12.0874 5.01789 11.3162 5.87135C10.5445 6.72481 9.83018 7.62898 9.17839 8.57517C8.52608 9.52186 7.93735 10.5106 7.44011 11.4911C6.94286 12.4716 6.53814 13.4429 6.20837 14.4387C5.20458 17.5032 4.88514 20.6783 5.35706 23.8442C5.43769 24.378 5.54107 24.9077 5.66719 25.4328C5.96182 26.6095 6.38256 27.756 6.92115 28.8451C7.45923 29.9342 8.11516 30.9665 8.87291 31.9183C9.63118 32.8696 10.4923 33.7415 11.4356 34.5135C11.8316 34.8439 12.2415 35.1579 12.6632 35.4556C13.085 35.7532 13.5187 36.0334 13.9637 36.2967C14.4082 36.5601 14.8636 36.8049 15.3283 37.0314C16.1698 37.434 17.0464 37.7665 17.9448 38.0226C19.7461 38.5375 21.6317 38.7429 23.492 38.6333C24.8989 38.5549 26.2961 38.2967 27.6369 37.8654C28.9777 37.4345 30.2616 36.8311 31.4463 36.0749C32.6305 35.3178 33.7165 34.4085 34.6686 33.3788Z" fill="#007840"/>
<path d="M35.6181 18.3225C35.2981 18.3292 34.8619 18.385 34.4804 18.4998C33.9589 18.6668 33.4626 18.844 32.9432 19.4004C32.7586 19.5971 32.7845 19.8435 33.0062 20.0879C33.0874 20.1688 33.2435 20.261 33.3386 20.2334C33.7216 20.0623 34.1212 19.8532 34.4907 20.1611C34.6318 20.28 34.7523 20.4582 34.8019 20.6247C34.8314 20.7175 34.8479 20.8143 34.8479 20.9116V24.4966C34.5 24.848 34.1398 25.1871 33.7681 25.5134C33.3965 25.8403 33.014 26.1538 32.6196 26.4524C32.2252 26.7511 31.8195 27.0349 31.5843 27.1958C31.3491 27.3566 31.285 27.394 31.2183 27.4268C30.9015 27.58 30.5898 27.6338 30.2254 27.6046C30.0905 27.5882 29.9912 27.5538 29.8677 27.4422C29.7049 27.2731 29.6423 27.08 29.6418 26.8863L29.6403 20.1796C29.6403 20.0648 29.6723 19.9367 29.7747 19.8189C29.8698 19.7118 29.9954 19.6545 30.1174 19.6391L30.6808 19.5843C30.8017 19.5904 30.9992 19.4521 31.0302 19.321C31.0783 19.1519 31.0447 18.9747 31.0524 18.8015C31.0503 18.697 31.0493 18.6007 30.8932 18.4726C30.8219 18.4214 30.735 18.3978 30.6523 18.4019C29.4346 18.4014 28.2163 18.3927 26.998 18.4009C26.8641 18.4158 26.7375 18.4076 26.5907 18.4849C26.5038 18.5382 26.4542 18.612 26.4289 18.6858L26.2283 19.2657C26.2082 19.3153 26.1787 19.3614 26.142 19.4009C25.9735 19.5597 25.7771 19.5976 25.5522 19.445C24.6983 18.7421 23.8372 18.4819 22.9668 18.3523C21.9997 18.2221 20.9943 18.32 19.9916 18.7165C19.6794 18.841 19.3775 18.9926 19.0917 19.1688C18.8053 19.3451 18.5345 19.5454 18.2833 19.7677C18.0393 19.9926 17.8139 20.2374 17.6093 20.4977C17.4046 20.7584 17.2211 21.0351 17.0603 21.3245C16.5445 22.2523 16.3124 23.2548 16.2669 24.2537C16.2421 25.08 16.3263 25.9048 16.5341 26.7352C16.5946 26.9729 16.6654 27.2075 16.7419 27.4186C16.8867 27.8177 17.065 28.1655 17.3136 28.5246C17.6351 28.9744 18.0719 29.4498 18.4843 29.7812C20.0603 31.0199 21.6725 31.2786 23.3426 30.9139C23.6155 30.8422 23.8967 30.7095 24.1448 30.5169C24.4032 30.3222 24.7247 30.0087 24.9418 29.7316C25.1573 29.4595 25.423 29.4114 25.7182 29.5548C25.8665 29.6393 25.9482 29.7618 25.9885 29.8827C26.0552 30.0661 26.126 30.2495 26.2009 30.4318C26.2635 30.5635 26.3498 30.6844 26.4547 30.7858C26.6785 31.002 26.9669 31.1137 27.2445 31.1275C27.5774 31.1624 27.9247 31.1383 28.2628 31.0466C28.4277 31.002 28.5884 30.9416 28.8133 30.8376C29.2619 30.6306 29.8956 30.2858 30.4373 29.9216C30.7066 29.7418 30.9682 29.5523 31.2225 29.3525C32.4242 28.372 33.6177 27.3617 34.8024 26.3203L34.8065 30.7725C34.8117 30.8396 34.8159 30.9001 34.9146 30.98C34.9601 31.0123 35.0149 31.0276 35.0671 31.0276L39.901 31.0266C39.9697 31.024 40.0328 31.021 40.1155 30.9226C40.1496 30.8765 40.1651 30.8217 40.1646 30.7684L40.1641 30.251C40.1573 30.1511 40.1687 30.0604 39.9878 29.9339C39.9506 29.9124 39.9098 29.898 39.8679 29.8914L39.3024 29.8043C39.2244 29.7889 39.1484 29.7602 39.0802 29.7193C38.8212 29.5538 38.7488 29.3402 38.7452 29.125L38.7561 22.2405C38.7607 21.992 38.815 21.7379 38.9344 21.4843C38.9804 21.3803 39.0404 21.2825 39.1117 21.1939C39.3215 20.9444 39.5743 20.7697 39.8255 20.761C39.9268 20.7625 40.0385 20.7933 40.1418 20.885C40.3372 21.0771 40.3589 21.3363 40.1589 21.5771C39.9594 21.8834 39.8999 22.2318 39.9723 22.5724C40.0111 22.7374 40.0757 22.8972 40.163 23.0432C40.2504 23.1892 40.3605 23.3219 40.4887 23.4346C40.6169 23.5473 40.7626 23.6395 40.9389 23.7184C41.4899 23.9638 42.1747 24.0165 42.8059 23.7819C43.0131 23.7056 43.2163 23.5996 43.3977 23.4643C43.5791 23.3291 43.7394 23.1656 43.8706 22.9817C44.2707 22.4162 44.355 21.7384 44.3457 21.1037C44.3441 20.8722 44.3131 20.6411 44.2542 20.4173C44.1947 20.1934 44.1063 19.9772 43.9926 19.7749C43.8789 19.5725 43.7388 19.385 43.5781 19.2175C43.3724 19.0239 43.1413 18.8553 42.8927 18.719C42.1587 18.32 41.3451 18.2098 40.5342 18.3753C40.2969 18.4291 40.0659 18.5131 39.8498 18.6243C39.3159 18.8907 38.9054 19.3589 38.4501 19.8123C38.3074 19.9367 38.1379 19.9818 37.9575 19.8732C37.8029 19.7467 37.8122 19.5669 37.7099 19.4147C37.605 19.2283 37.4623 19.031 37.2261 18.8353C36.9294 18.5966 36.6751 18.4983 36.365 18.4122C36.2497 18.382 36.1324 18.3589 36.0135 18.3435C35.8967 18.3277 35.7773 18.319 35.6181 18.3225ZM25.483 26.2726C25.3868 26.5472 25.2431 26.8054 25.0602 27.0323C24.8767 27.2593 24.6539 27.455 24.4053 27.6087C24.0605 27.8315 23.6811 27.9667 23.3038 28.0169C23.1079 28.0431 22.9094 28.0467 22.7331 28.0359C22.2638 28.0047 21.856 27.8838 21.4078 27.5795C21.2838 27.4867 21.168 27.3838 21.0615 27.2711C20.3467 26.5067 20.266 25.6482 20.2965 24.8147C20.3152 24.432 20.3565 24.0437 20.4408 23.6595C20.4816 23.4694 20.5307 23.2809 20.5741 23.1349C20.6568 22.8603 20.7318 22.6949 20.8475 22.4864C20.9959 22.2282 21.183 21.9746 21.4745 21.7164C22.2824 21.0074 23.1058 20.9618 23.9649 21.2118C24.2285 21.2948 24.4942 21.4229 24.749 21.615C24.9309 21.7446 25.0922 21.9039 25.224 22.0837C25.4969 22.4561 25.6298 22.9028 25.6241 23.3332L25.6272 25.4166C25.6272 25.7071 25.5796 25.9981 25.483 26.2726Z" fill="#007840"/>
<path d="M62.2774 10.6301C62.3033 10.7402 62.4635 10.8555 62.5622 10.8539L63.1334 10.898C63.2812 10.9005 63.4368 10.96 63.5536 11.0793C63.6074 11.1352 63.6513 11.2018 63.6797 11.2735C63.7087 11.3457 63.7221 11.4236 63.7221 11.5009L63.7376 27.6747C63.7309 28.3668 63.933 29.085 64.3713 29.6828C64.5817 29.9723 64.8396 30.2279 65.1317 30.4364C65.4232 30.6454 65.7493 30.8073 66.0931 30.9138C66.4363 31.0204 66.7976 31.0644 67.1573 31.066L70.484 31.0762C70.9182 31.0772 71.3529 30.9973 71.7576 30.8421C72.1629 30.6869 72.5386 30.4564 72.8586 30.1654C73.1791 29.8749 73.4437 29.5245 73.637 29.1388C73.9151 28.5824 74.0247 28.0251 74.0226 27.4821L74.0247 25.4411C74.9923 25.8725 75.9738 26.2055 76.9689 26.4513C77.11 27.126 77.3653 27.7986 77.7437 28.4318C77.9266 28.7377 78.1355 29.0286 78.367 29.3001C78.6141 29.6049 78.8948 29.8836 79.2018 30.129C79.5088 30.3744 79.8433 30.587 80.1963 30.7607C80.5498 30.9348 80.922 31.0701 81.3055 31.1679C81.689 31.2658 82.0845 31.3252 82.4809 31.3554C83.2619 31.4195 84.12 31.34 84.795 31.1802C85.1263 31.1024 85.3941 31.0096 85.6551 30.9C85.9156 30.7904 86.1689 30.6638 86.4113 30.5199C86.6537 30.3759 86.8863 30.2146 87.106 30.0378C87.3257 29.8611 87.5324 29.669 87.7242 29.463C87.9165 29.2571 88.0933 29.0379 88.254 28.8068C88.4148 28.5763 88.5585 28.334 88.6846 28.083C88.7843 27.8719 88.7497 27.6808 88.5507 27.5246C88.3326 27.3919 88.1403 27.4272 87.9759 27.5912C87.7433 27.855 87.4818 28.0932 87.1985 28.3027C86.9148 28.5117 86.6088 28.6905 86.2867 28.8345C85.6401 29.1224 84.9945 29.2592 84.4203 29.2469C83.8522 29.2392 83.2754 29.1116 82.7435 28.8606C82.4649 28.7131 82.2085 28.5251 81.9852 28.3043C81.7614 28.083 81.5707 27.8294 81.4218 27.5538C81.2724 27.2777 81.1644 26.98 81.1019 26.6737C81.7754 26.5897 82.4478 26.4426 83.1095 26.2362C84.0864 25.9375 85.2023 25.4222 86.0681 24.601C86.3581 24.3305 86.6222 24.0334 86.8083 23.7936C86.9944 23.5534 87.1019 23.371 87.1897 23.1794C87.3748 22.7778 87.4632 22.3598 87.4694 21.9571C88.1005 21.5217 88.7378 21.1656 89.3643 20.7917C89.7504 20.5975 90.1344 20.6119 90.473 20.7594C90.6239 20.8204 90.7738 20.9249 90.8891 21.0965C91.0007 21.2635 91.04 21.4428 91.0395 21.6077L91.0488 31.1413L96.6658 31.1408L96.6668 30.4512C96.6668 30.3995 96.6581 30.3472 96.64 30.2991C96.6048 30.1679 96.4094 30.0286 96.2854 30.0301L95.6444 29.9533C95.4873 29.9313 95.3255 29.8544 95.2035 29.712C95.0743 29.5583 95.0335 29.3913 95.0361 29.2412L95.0423 21.9095C95.0423 21.8413 95.0495 21.7727 95.066 21.7066C95.1126 21.5027 95.2842 21.2722 95.5524 21.1334C95.9225 20.9541 96.2911 21.0053 96.5903 21.2158C97.023 21.5196 97.4732 21.7614 97.8128 21.8767C98.0345 21.9479 98.263 21.9771 98.4837 21.9704C98.9649 21.9556 99.4446 21.7957 99.8695 21.4013C100.007 21.2768 100.136 21.1431 100.254 21.0012C100.508 20.6959 100.695 20.3793 100.835 20.0617C101.004 19.6667 101.12 19.2497 101.178 18.8245C101.294 17.9741 101.172 17.094 100.831 16.3056C100.712 16.0459 100.563 15.799 100.387 15.5731C100.212 15.3471 100.01 15.1412 99.7862 14.9609C99.5629 14.7806 99.319 14.6264 99.06 14.5014C98.8124 14.4102 98.5824 14.4501 98.4036 14.715C98.2743 14.9691 98.3162 15.1965 98.5431 15.3856C98.7814 15.549 99.0161 15.7575 99.2451 16.0049C99.5573 16.3379 99.7232 16.6816 99.7723 17.0064C99.8198 17.4121 99.8204 17.8389 99.4632 18.1898C99.1179 18.4803 98.7974 18.4736 98.5033 18.3727C98.2206 18.2323 97.941 18.0566 97.6655 17.8276C97.3879 17.592 97.1108 17.4265 96.8328 17.3005C96.3381 17.0746 95.8238 17.2195 95.4124 17.5197C95.2511 17.6417 95.112 17.7933 95.0051 17.9644C94.8981 18.1355 94.8226 18.3255 94.7833 18.5233C94.7254 18.9244 94.7358 19.326 94.8128 19.7205C94.8402 19.846 94.8128 19.973 94.7233 20.0801C94.4504 20.3337 94.1972 20.2748 94.0023 20.0622C93.9666 20.0171 93.9403 19.9648 93.9237 19.91C93.8178 19.5135 93.6431 19.0796 93.3453 18.7374C93.228 18.6058 93.0915 18.491 92.9416 18.3973C92.7912 18.3035 92.6279 18.2318 92.4573 18.1836C91.513 18.0064 90.6136 18.26 89.7111 18.8138C88.9141 19.347 88.0741 19.8721 87.2559 20.4018C87.1184 20.1257 86.9447 19.8675 86.7406 19.6355C86.5364 19.4039 86.3012 19.1985 86.0433 19.0269C85.7854 18.8552 85.5047 18.7174 85.2111 18.617C83.7917 18.1478 82.3677 18.2333 81.0218 18.7267C80.6134 18.8803 80.2206 19.075 79.867 19.2897C79.513 19.5043 79.1977 19.7384 78.9087 20.0017C78.6198 20.2645 78.3577 20.5565 78.1282 20.8716C77.8987 21.1866 77.7023 21.5247 77.5447 21.8536C77.387 22.183 77.2671 22.5027 77.1679 22.828C76.9637 23.4914 76.8469 24.1656 76.8159 24.832C75.8632 24.6148 74.9179 24.2342 74.0024 23.6271L73.9926 18.5438L69.5557 18.5387L69.5464 21.8444C69.5562 22.18 69.6704 22.515 69.9614 22.808L71.4098 23.953L71.4144 27.6829C71.4237 27.9293 71.3529 28.1849 71.2035 28.3996C71.1306 28.5041 71.0417 28.5963 70.9399 28.6726C70.3212 29.085 69.7242 29.0753 69.1365 29.001C68.8274 28.9472 68.5012 28.8744 68.2356 28.6454C68.1239 28.5532 68.0267 28.4441 67.9471 28.3237C67.8681 28.2034 67.8071 28.0707 67.7667 27.9324C67.7269 27.7935 67.7099 27.6496 67.7099 27.5056L67.7001 9.835L62.2583 9.82373L62.2588 10.5066C62.2578 10.5476 62.264 10.5901 62.2774 10.6301ZM80.9975 22.9735C81.105 22.6215 81.2481 22.2804 81.4249 21.9571C81.5149 21.7635 81.6306 21.5811 81.7692 21.4172C81.9072 21.2532 82.0669 21.1072 82.2437 20.9843C82.4199 20.8619 82.6127 20.7625 82.8153 20.6897C83.1591 20.5832 83.5152 20.5576 83.8522 20.6031C84.1484 20.6482 84.4699 20.7189 84.7071 20.972C84.8059 21.0734 84.886 21.1938 84.9408 21.3244C84.9956 21.4546 85.0261 21.5949 85.0297 21.7363C85.0597 22.2455 84.9739 22.7091 84.6451 23.2276C84.4203 23.5795 84.074 23.9606 83.693 24.2286C83.4997 24.3664 83.2929 24.4852 83.0666 24.5928C82.8402 24.7004 82.5941 24.7967 82.3429 24.8766C81.8291 25.04 81.306 25.1317 80.7902 25.1553C80.7111 24.4232 80.7819 23.6763 80.9975 22.9735Z" fill="#007840"/>
<path d="M43.9388 10.5811C43.9771 10.7266 44.2066 10.8829 44.3492 10.8701H44.9276C45.0785 10.8711 45.229 10.9213 45.3504 11.0816C45.4223 11.1815 45.4476 11.2891 45.4455 11.3875L45.4517 27.1012C45.4517 27.5166 45.5138 27.9321 45.6414 28.3276C45.7696 28.7225 45.9614 29.0981 46.2079 29.4341C46.454 29.7702 46.7543 30.0673 47.0939 30.3106C47.4335 30.5545 47.8124 30.744 48.2114 30.87C48.6099 30.9966 49.0301 31.056 49.4493 31.0565L57.6771 31.0662C58.5868 31.0683 59.4785 30.8398 60.3298 30.2071C60.5934 30.0053 60.8466 29.7584 61.0555 29.4782C61.2643 29.1979 61.4297 28.8855 61.5434 28.555C61.7827 27.8701 61.7869 27.1345 61.607 26.5028C61.5139 26.176 61.3723 25.8732 61.1878 25.5976C61.0038 25.322 60.7774 25.0746 60.5195 24.8661C60.261 24.6576 59.9705 24.4885 59.6614 24.3651L56.8749 23.1623C56.6924 23.091 56.496 22.9174 56.4107 22.7816C56.1146 22.2955 56.1564 21.8155 56.5777 21.4236C56.6413 21.3759 56.7074 21.3319 56.7757 21.2919C57.3882 20.9487 57.9319 20.9707 58.5842 21.0701C58.852 21.1142 59.1182 21.1797 59.3808 21.2673C59.8372 21.3974 60.2858 21.6203 60.7107 22.0106L62.3027 18.5256L55.9941 18.52C55.3263 18.5302 54.6166 18.6726 54.0191 19.0635C53.7824 19.2182 53.5684 19.4072 53.387 19.6224C53.2055 19.8375 53.0567 20.0804 52.9399 20.3329C52.6959 20.8631 52.5982 21.4143 52.6127 21.943C52.6354 22.4271 52.7005 22.9051 53.0236 23.3636C53.1559 23.5608 53.4019 23.7965 53.6976 24.0362C54.0367 24.3087 54.3866 24.5249 54.7381 24.697L56.892 25.8615C57.0429 25.9363 57.1912 26.0469 57.3143 26.2149C57.3685 26.2897 57.414 26.3712 57.4486 26.4567C57.6637 27.0361 57.6833 27.6355 57.3411 28.1519C57.2507 28.2871 57.138 28.4075 57.0093 28.5074C56.2174 29.0473 55.4442 29.0484 54.7014 28.8916C54.2109 28.7758 53.6997 28.5361 53.2903 28.1667C53.0572 27.9582 52.8566 27.7128 52.6985 27.4434C52.5408 27.1739 52.4261 26.8794 52.3584 26.5756C52.0493 26.5587 51.7288 26.635 51.4538 26.803C51.3194 26.885 51.1974 26.9875 51.0935 27.1048C51.1535 27.1529 51.2093 27.2062 51.26 27.2641C51.7241 27.8409 51.7231 28.4249 51.216 28.8972C51.1452 28.9556 51.0672 29.0053 50.9834 29.0437C50.5518 29.2005 50.1492 29.1329 49.7936 28.7938C49.7181 28.7174 49.655 28.6293 49.6065 28.5345C49.4473 28.2154 49.47 27.9208 49.4576 27.6201L49.4597 9.7912L43.9062 9.78198L43.9073 10.407C43.9073 10.4669 43.9176 10.5258 43.9388 10.5811Z" fill="#007840"/>
<path d="M89.736 4.44301C89.7071 4.50244 89.6823 4.5634 89.6636 4.62641C89.5365 5.0224 89.5897 5.43325 89.9045 5.8774C89.9784 5.97525 90.0637 6.06438 90.1583 6.14328C90.5217 6.45935 90.5067 6.83383 90.5423 7.18935C90.5734 7.45779 90.5723 7.73083 90.9124 8.03359C91.2339 8.24721 91.6278 8.31842 91.9819 8.1048L92.9159 7.59559C93.0761 7.51414 93.2596 7.47982 93.4674 7.68832C93.5909 7.84968 93.624 8.03411 93.4658 8.24312C93.3035 8.39373 93.0854 8.49055 92.8952 8.61503C92.7102 8.72876 92.5267 8.8348 92.3406 8.9557C92.2501 9.01461 92.1437 9.13397 92.094 9.23438C91.9121 9.615 91.847 10.0402 92.3649 10.471C92.5422 10.6109 92.7717 10.7379 92.9645 10.9259C93.2534 11.1826 93.2105 11.4879 93.3485 11.7881C93.3976 11.9008 93.4596 12.0068 93.5336 12.1047C93.8251 12.4884 94.1766 12.6211 94.5172 12.6503C94.7229 12.6682 94.9545 12.6252 95.1251 12.557C95.2196 12.5191 95.3344 12.4592 95.4445 12.3695C95.783 12.0847 95.9288 11.764 95.9898 11.4377C96.0229 11.2697 96.0854 11.1037 96.2689 10.9259C96.4994 10.6923 96.747 10.6129 97.0081 10.3389C97.3616 9.96284 97.3446 9.57095 97.0706 9.12629C96.9843 9.01205 96.8897 8.95109 96.792 8.89115L95.8797 8.34404C95.6269 8.17293 95.5856 7.94087 95.7608 7.69395C95.919 7.52592 96.1056 7.49365 96.3123 7.6002C96.699 7.80153 97.0923 8.04486 97.4722 8.20111C97.7379 8.26566 98.0134 8.23543 98.3189 8.03308C98.904 7.50543 98.5132 6.90248 98.9355 6.28415C99.0213 6.16325 99.2074 6.04902 99.3268 5.87638C99.7134 5.31645 99.8085 4.6761 99.195 4.03934C98.7474 3.65052 98.2258 3.61056 97.6997 3.78473C97.2277 3.99477 96.6953 3.57675 96.2302 3.45995C95.9319 3.39386 95.6068 3.4036 95.2858 3.78268C95.1137 3.98657 95.0739 4.16946 95.0728 4.36925L95.0527 5.42557C95.0532 5.51471 95.0284 5.61306 94.9534 5.70374C94.77 5.88918 94.543 5.94963 94.2867 5.70425C94.219 5.62382 94.1859 5.5229 94.1869 5.42608C94.1683 4.99372 94.1864 4.56545 94.1316 4.13001C94.0913 3.94661 93.9305 3.7248 93.7253 3.57828C93.3118 3.2786 92.8172 3.48966 92.3835 3.70892C92.1023 3.82162 91.8273 3.89487 91.5317 3.78525C91.0825 3.63617 90.5961 3.61978 90.102 3.98299C89.9278 4.12899 89.8135 4.2837 89.736 4.44301Z" fill="#007840"/>
</svg>
