<svg width="120" height="52" viewBox="0 0 120 52" fill="none" xmlns="http://www.w3.org/2000/svg">
<path d="M47.0755 39.5528C42.9292 36.8882 37.3022 36.4206 28.2273 38.9324C18.5529 41.2004 15.3274 42.6543 11.0913 39.7357C9.46386 38.3019 8.88039 35.9935 9.31608 32.6683C10.3266 27.2476 13.0574 22.031 17.9081 16.2446C20.6156 13.2346 23.1271 10.6514 26.4435 9.61408C28.9852 8.96335 28.7475 10.9561 28.44 11.2411C28.1155 11.2411 27.5703 11.2921 27.149 11.5664C26.807 11.831 25.8684 12.6853 25.818 13.8344C25.7452 15.5936 27.5702 15.2275 28.3573 14.2616C29.2057 13.1732 30.4595 11.0888 29.4732 9.14621C29.0598 8.45477 28.3456 7.9769 27.4587 7.81418C24.422 7.64104 21.5938 9.08521 18.9838 10.6818C13.2756 14.6378 8.70935 20.1193 6.1256 26.1194C4.63594 29.7396 3.28877 34.9255 5.30813 39.1462C6.87022 42.0749 10.1133 43.6305 13.9826 43.3052C16.6963 43.0207 19.9777 42.1457 22.1847 41.6174C24.3917 41.0883 35.689 37.2141 39.401 43.9569C39.401 43.9569 40.6353 41.5664 43.7201 41.5154C46.2562 41.282 49.9148 42.2479 52.5792 44.2001C51.6915 42.8683 49.1749 40.9056 47.0755 39.5528Z" fill="#E61D2A"/>
<path d="M29.3795 16.926C27.2666 15.5429 23.0198 18.187 19.6183 22.7224C16.5077 26.7906 15.1646 31.5188 16.6263 33.7053C18.8007 36.2781 22.8372 32.5359 24.5537 30.5328L24.7752 30.2987C25.9425 29.0478 26.8444 27.5426 27.7173 26.0984C27.7173 26.0984 28.5196 24.7764 28.5579 24.7153C29.0538 24.6241 29.651 24.4817 30.324 24.2884C30.3144 24.3187 27.7491 28.6205 28.0108 30.7557C28.0923 31.4071 28.03 33.7867 30.3589 34.5086C33.4627 35.0276 35.9412 32.6273 38.1277 30.4917C38.1277 30.4917 38.5003 30.1361 38.711 29.9331C38.6576 30.1461 38.5881 30.4303 38.5881 30.4303C37.6794 33.5829 38.9043 34.2443 39.6705 34.4885C41.9862 35.16 44.7525 31.8038 44.7614 31.8038C44.6897 32.861 44.4799 33.7356 45.597 34.4373C46.6514 34.8139 47.7185 34.2399 48.5295 33.7009C51.451 31.6467 53.8047 28.4317 55.7058 25.6525H54.4932C54.4788 25.6525 51.5009 29.9585 49.5672 30.8944C49.5641 30.8944 49.2123 31.0746 49.0095 30.932C48.7585 30.7183 48.8575 30.2742 49.0126 29.9596C49.0223 29.939 56.4787 17.0373 56.4787 17.0373H52.9581C52.9581 17.0373 52.5735 17.658 52.5422 17.6987C52.5185 17.6784 52.4621 17.5717 52.423 17.5206C50.2418 14.5105 45.3023 19.1405 41.5835 24.5098C40.1518 26.5744 38.3289 28.899 36.4388 30.5769C36.4388 30.5769 33.6388 33.1375 32.4423 31.2978C32.0049 30.5247 32.1395 29.3946 32.3862 28.6525C33.7792 24.6965 36.1795 21.1063 38.9109 18.94C39.682 18.3404 40.52 18.167 40.9359 18.4213C41.3322 18.6555 41.3961 19.2347 41.1454 19.6314C40.5093 19.6111 39.9997 19.804 39.5853 20.2312C38.7691 21.0855 38.4855 21.9093 38.745 22.6824C40.0057 24.4721 42.5199 20.933 42.3983 18.7771C42.3548 18.0041 41.9415 17.2721 41.3246 16.9158C40.4051 16.3669 39.0025 16.5091 38.0948 16.9467C36.8797 17.4041 34.9561 19.0006 33.8333 20.2415C32.4199 21.7976 29.9957 23.5262 29.2376 23.3327C29.486 22.6714 31.5336 18.4919 29.3795 16.926ZM46.353 23.1089C47.0379 22.1634 49.0312 19.631 49.5172 19.204C51.1516 17.7696 51.8048 18.4007 51.8614 18.8479C50.3361 21.5732 48.5358 24.6954 46.8432 27.5023C46.8467 27.4923 46.3135 28.3056 46.3135 28.3056C45.5659 29.4444 44.8132 30.4207 43.5854 31.102C43.4104 31.1531 43.1218 31.1735 42.9297 31.0307C42.6985 30.8781 42.6072 30.6238 42.6333 30.3592C42.7068 29.4849 43.5992 26.8109 46.353 23.1089ZM27.2006 24.7461C27.2006 24.7461 27.1699 24.838 27.1547 24.868C27.1508 24.868 25.6198 27.3592 25.6198 27.3592C24.6958 28.5899 23.5421 30.1361 22.0999 30.8781C21.6725 31.0205 21.0816 31.1123 20.7805 30.7362C20.1421 29.9734 20.4711 28.9158 20.7384 28.0616L20.833 27.7565C21.5993 25.6821 22.8153 23.8512 23.9988 22.1529C24.0136 22.1429 24.0467 22.1328 24.0587 22.1328C24.0615 22.1429 24.0662 22.1429 24.0683 22.1634C24.811 23.5868 26.2036 24.2476 27.245 24.5531C27.2513 24.5531 27.2579 24.5633 27.2579 24.5837C27.2581 24.614 27.2411 24.655 27.2006 24.7461ZM28.6511 21.8075C28.6444 21.8278 27.9691 23.3734 27.9691 23.3734C27.8715 23.4547 27.7172 23.4141 27.5403 23.3734L27.2372 23.3222C26.2855 23.0275 25.5676 22.3969 25.3463 21.6445C25.0409 20.18 26.2949 19.0309 26.8475 18.6141C27.3776 18.2477 28.2017 18.0546 28.6803 18.431C28.9755 18.7769 29.0873 19.2242 29.0873 19.7126C29.0875 20.3735 28.883 21.1158 28.6511 21.8075Z" fill="#E61D2A"/>
<path d="M73.1581 26.5256C72.8186 25.7936 72.0127 25.3257 71.1539 25.3765C68.365 25.6309 65.637 27.9189 64.2048 31.2034C63.4532 32.8918 63.043 34.2848 62.774 36.5017C63.6412 35.5054 65.4101 33.8682 67.4175 32.9732C67.4175 32.9732 67.6907 30.8478 69.0835 28.9562C69.6106 28.1729 70.6654 26.9121 71.8497 27.2475C72.8845 27.5935 72.5208 30.4511 71.1455 33.2166C70.1279 35.2508 68.5707 37.2853 66.9951 38.6883C65.6021 39.868 63.5411 41.2916 61.7379 40.1935C60.6021 39.5226 60.0229 38.1189 60.1453 36.3087C60.6879 31.1733 63.0311 26.8003 66.3844 21.8174C69.8421 17.1903 73.6535 12.4412 78.788 9.90858C79.8353 9.37986 80.8051 9.25785 81.6435 9.58329C81.6435 9.58329 76.8236 12.2273 74.5261 17.119C73.9417 18.3599 73.1288 20.0374 73.9474 21.5222C74.3751 22.295 75.1347 22.3561 75.7461 22.3154C78.5623 21.6644 80.3818 19.0408 81.8684 16.641C82.7303 14.8207 83.4964 13.0105 83.4964 10.9969C83.4964 10.7529 83.4837 10.4276 83.463 10.1833C84.8085 9.47171 87.5674 10.7325 87.5674 10.7325C89.7234 11.4446 94.3142 14.9532 95.8627 15.6241C96.6181 14.7497 97.8594 13.4278 98.5583 12.7666L97.5466 12.1462C95.9267 11.1597 94.2144 10.224 92.5291 9.29871C88.7016 7.21423 85.5862 7.94625 84.0006 8.51583C83.3775 8.73941 82.8079 8.9327 82.8079 8.9327C81.6312 7.65138 79.7014 7.77311 78.2795 8.11911C73.1657 9.58343 68.4179 13.1528 63.3277 19.3462C59.5854 24.1971 57.264 28.3871 56.0267 32.5259C55.0731 35.3121 54.7832 39.4105 57.1109 41.8411C59.0901 43.9048 61.7143 43.4578 63.5675 42.7157C67.5827 40.7428 71.1915 36.4917 72.9897 31.6002C73.4235 30.1461 73.9052 28.0919 73.1581 26.5256ZM82.3907 11.2005C81.8592 17.2819 77.1209 20.8516 75.9485 21.1359C75.238 21.2781 74.0257 20.9631 75.1079 18.4109C76.7018 14.9732 79.4228 12.0549 82.3424 10.5599C82.4135 10.8142 82.4116 10.9765 82.3907 11.2005Z" fill="#E61D2A"/>
<path d="M110.499 11.9723C107.95 13.4166 105.308 14.3519 102.109 14.0266C101.223 15.0235 100.36 16.0505 99.5645 17.108C104.053 18.247 108.813 15.7148 111.467 13.3049C114.274 10.8743 115.714 7.81348 115.714 7.81348C115.714 7.81348 113.61 10.2132 110.499 11.9723Z" fill="#E61D2A"/>
<path d="M60.4433 20.0944L62.3299 17.0374H58.9865L57.1006 20.0944H60.4433Z" fill="#E61D2A"/>
<path d="M102.096 39.8363C101.737 40.0803 101.231 39.8927 101.42 39.3336C101.891 37.9098 103.761 35.0084 103.761 35.0084L108.969 25.7921H105.402C105.232 26.07 104.869 26.7082 104.869 26.7082C104.704 26.4339 104.211 25.8239 104.007 25.6922C103.136 25.1426 101.857 25.4024 100.975 25.9006C97.1388 28.1382 94.3402 32.5591 92.133 36.0067C92.133 36.0067 89.8096 39.8391 88.5198 40.1241C87.5129 40.2055 87.6168 38.8524 87.6604 38.5371C88.0497 36.2588 88.9538 34.0929 89.8648 32.1301C91.7174 30.8488 93.8318 29.1709 95.7532 27.3303C99.9232 23.3537 103.439 18.8486 103.952 17.8418C103.952 17.8418 103.396 17.9538 102.74 17.974C99.5315 22.4384 92.9667 28.9268 90.9764 29.8926C91.8581 27.777 97.5545 17.679 102.402 12.8486L103.165 12.1162C104.344 10.967 105.567 9.78739 106.519 9.59411C106.62 9.58396 106.749 9.59411 106.861 9.82839C106.903 10.7231 106.57 11.3843 106.187 12.1367L105.65 13.2352C105.65 13.2352 106.41 13.0927 106.909 12.9296C107.489 11.842 108.131 10.6213 107.894 9.16737C107.815 8.69951 107.476 8.34364 107.032 8.26221C105.586 7.98764 104.01 9.0551 102.742 9.91982L102.691 9.95011C96.1719 15.0451 90.6673 22.3875 85.8549 32.4147C85.5061 32.6787 84.1585 32.9943 83.9294 32.8416C84.4046 31.8655 85.003 30.5534 85.3025 29.1296C85.3543 28.7228 85.4025 28.306 85.4025 27.8993C85.4025 27.024 85.1919 26.2006 84.4059 25.6313C83.4844 25.1736 82.3454 25.3873 81.5776 25.7329C78.1375 27.1566 75.5664 30.6755 73.7111 33.5735C72.7133 35.4146 71.7184 37.3865 71.4428 39.6446C71.2488 41.4138 71.6438 42.5528 72.6521 43.1225C73.6891 43.651 74.9942 43.1017 75.5069 42.8375C78.992 41.007 81.427 37.3361 83.3465 33.9799C83.4228 33.9699 84.4708 33.9396 85.2635 33.7359C85.2741 33.7359 85.2785 33.7359 85.2961 33.7466C85.2507 33.8985 84.841 35.1192 84.841 35.1192C83.6245 38.6783 83.0619 41.0989 84.211 42.5325C85.8531 44.5564 88.5715 42.4616 90.7829 39.695C90.3083 43.0102 92.0305 43.5291 93.3433 43.2751C94.8513 42.8685 96.5318 41.2613 97.3117 40.4379C97.0613 41.4038 97.1294 43.1328 98.5012 43.3055C99.4415 43.4789 100.145 42.9687 100.959 42.5312C103.88 40.9446 107.376 35.6578 108.284 34.1293H107.094C105.804 36.0748 104.161 38.6256 102.096 39.8363ZM75.8799 39.4823C75.6947 39.2077 75.6333 38.9074 75.6271 38.5828C75.5916 36.5888 77.742 33.0178 79.26 31.0724C79.2632 31.0724 79.2632 31.0724 79.2632 31.0724C79.8993 32.4619 81.3398 33.3552 82.2094 33.7316C81.1293 36.1318 77.4253 41.272 75.8799 39.4823ZM82.8189 32.6586C82.7159 32.7301 80.8995 32.1197 80.5485 30.4418C80.2507 28.9972 81.2479 27.8685 82.2126 27.2995C82.6267 26.9739 83.2504 26.8623 83.7079 27.0243C84.1326 27.3095 84.2477 27.8183 84.2477 28.3666C84.2477 28.7029 84.203 29.0483 84.1635 29.3635C84.1635 29.3635 84.156 29.4248 84.1548 29.4349C83.8521 30.5634 83.389 31.672 82.8189 32.6586ZM97.3876 38.8417C97.3861 38.8417 97.043 39.1467 97.043 39.1467C96.553 39.5837 96.0488 40.0516 95.4401 39.8176C95.272 39.7566 95.1537 39.5331 95.1253 39.3597C95.0976 38.1088 95.6623 36.9498 96.2098 35.8212L96.3502 35.5261C97.9252 32.9024 99.756 29.8109 102.445 27.6655C102.898 27.3393 103.39 27.0653 103.909 27.279C104.028 27.3906 104.167 27.584 104.167 27.777C104.167 27.8383 104.112 28.0009 104.081 28.0515C103.33 29.2622 102.615 30.5332 101.919 31.7534C100.56 34.1637 99.1503 36.6549 97.3876 38.8417Z" fill="#E61D2A"/>
</svg>
