<svg width="120" height="52" viewBox="0 0 120 52" fill="none" xmlns="http://www.w3.org/2000/svg">
<path d="M60.2054 5.19995C29.6424 5.19995 5.14307 14.3328 5.14307 25.7833C5.14307 37.1641 29.8443 46.3675 60.2054 46.3675C90.5671 46.3675 115.268 37.1332 115.268 25.7833C115.268 14.4334 90.5671 5.19995 60.2054 5.19995Z" fill="#003478"/>
<path d="M81.8941 30.1432C81.9089 30.2375 82.033 30.3278 82.1532 30.3705C82.1975 30.3852 82.2192 30.4147 82.1729 30.5149C81.8301 31.2475 81.5148 31.6699 81.085 32.3065C80.6895 32.8946 80.2442 33.3535 79.7051 33.7949C78.8918 34.4659 77.7623 35.1962 76.8286 34.7052C76.4139 34.4907 76.2344 33.912 76.2424 33.4435C76.2621 32.1261 76.85 30.7737 77.9355 29.4445C79.2589 27.8203 80.7218 26.9778 81.682 27.4383C82.6753 27.9106 82.3583 29.0572 81.9134 29.9571C81.879 30.0269 81.879 30.0858 81.8937 30.1427L81.8941 30.1432ZM92.5535 19.8781C92.6249 19.7524 92.5497 19.6606 92.3905 19.6606C91.5608 19.6606 90.4722 19.6625 89.6077 19.6625C89.4018 19.6625 89.2954 19.687 89.1984 19.8785C88.8792 20.488 84.9906 26.2982 84.2668 27.4264C84.1446 27.5983 83.9959 27.5742 83.9786 27.3773C83.9052 26.7072 83.3247 25.9368 82.4101 25.5682C81.7131 25.2864 81.0317 25.2353 80.3232 25.3291C79.0442 25.5004 77.9047 26.173 76.9029 26.9317C75.393 28.0759 74.0903 29.5592 72.4087 30.655C71.4907 31.2516 70.2335 31.7719 69.3923 30.9953C68.631 30.2916 68.717 28.7288 69.8818 27.52C70.0045 27.3933 70.1517 27.5003 70.1286 27.6128C70.0187 28.1594 70.1532 28.7031 70.5699 29.0842C71.078 29.5384 71.8053 29.5897 72.4278 29.2865C73.1623 28.9237 73.5939 28.223 73.7197 27.4279C73.9143 26.1944 72.9619 25.1064 71.7701 25.0191C70.802 24.9514 69.8735 25.2872 68.9689 26.0315C68.5153 26.4067 68.2577 26.6838 67.8654 27.24C67.7699 27.3769 67.6231 27.3906 67.6275 27.1883C67.6718 25.6091 67.0172 24.7205 65.7076 24.6916C64.691 24.667 63.6051 25.2172 62.7585 25.89C61.8306 26.633 61.0192 27.6175 60.1493 28.5427C60.0409 28.6566 59.9469 28.6512 59.9163 28.4302C59.8917 27.3839 59.6262 26.3704 59.1405 25.6506C58.9686 25.4002 58.6068 25.2765 58.3028 25.4454C58.1624 25.522 57.6742 25.7459 57.3186 26.0312C57.1423 26.1761 57.0733 26.3858 57.1516 26.6545C57.6205 28.2178 57.5176 29.9952 56.8812 31.4963C56.297 32.8713 55.1618 34.1113 53.8273 34.531C52.9483 34.8089 52.0345 34.6729 51.469 33.8959C50.6924 32.8237 51.006 30.9588 52.1637 29.4104C53.1853 28.047 54.6632 27.1809 56.1372 26.6232C56.3106 26.5564 56.3465 26.4455 56.2973 26.2986C56.2175 26.0571 56.0894 25.728 56.0377 25.5779C55.9023 25.219 55.5238 25.161 55.0616 25.2111C53.9905 25.3353 53.0243 25.7011 52.07 26.2106C49.5708 27.5448 48.3178 30.1269 47.7688 31.5083C47.5043 32.172 47.2782 32.5859 46.986 32.953C46.592 33.4466 46.0975 33.8961 45.1931 34.6879C45.1114 34.7605 45.0503 34.9117 45.1193 35.0527C45.2114 35.2432 45.6817 35.9054 45.8144 35.9645C45.9617 36.0366 46.1325 35.935 46.201 35.8868C46.8338 35.4592 47.5909 34.7814 47.9614 34.3216C48.0914 34.164 48.2249 34.2303 48.2939 34.4695C48.6396 35.6992 49.5449 36.7033 50.7968 37.1233C53.0883 37.8937 55.465 36.7786 57.2591 34.8373C58.3993 33.6034 58.8107 32.8098 59.2478 32.2704C59.9884 31.3556 61.4494 29.309 63.1895 27.995C63.8277 27.5104 64.5828 27.1408 64.9625 27.3863C65.2674 27.5832 65.3659 28.0407 64.8768 28.9273C63.1026 32.1572 60.4923 35.9519 60.0136 36.8721C59.9259 37.0317 60.0037 37.1574 60.1702 37.1574C61.0986 37.1528 62.0189 37.1551 62.8616 37.1551C63.002 37.1502 63.0646 37.0844 63.135 36.9857C64.4966 34.861 65.7779 32.8388 67.1513 30.7479C67.2282 30.6247 67.299 30.7184 67.302 30.7724C67.3316 31.2576 67.4498 31.921 67.7389 32.3567C68.2581 33.1622 68.9937 33.5083 69.8097 33.5136C70.4589 33.5234 70.7874 33.4227 71.4875 33.162C72.0572 32.9514 72.5145 32.6749 72.8655 32.4248C73.0704 32.2824 73.1064 32.5205 73.1014 32.5569C72.7862 34.2436 73.1754 36.2422 74.8569 37.0709C76.8693 38.0601 79.0801 36.6697 80.3522 35.4146C80.4768 35.2938 80.6103 35.3066 80.6231 35.5673C80.6526 36.0465 80.8674 36.6152 81.265 37.0131C82.3311 38.0797 84.4822 37.657 86.641 35.9912C88.0271 34.9246 89.4773 33.4178 90.7873 31.8222C90.8366 31.7603 90.8721 31.6611 90.7775 31.5605C90.578 31.3523 90.2894 31.1141 90.0916 30.9308C90.0015 30.8542 89.869 30.8762 89.7932 30.9334C88.4503 32.2066 87.2416 33.6585 85.4946 34.8592C84.9053 35.2692 83.9663 35.6 83.5445 35.0306C83.38 34.8097 83.3988 34.5042 83.5593 34.1031C84.0687 32.8368 92.1331 20.5965 92.5517 19.8745" fill="white"/>
<path d="M54.6115 21.3556C54.646 21.5372 54.7169 21.5726 54.7997 21.5574C55.2104 21.4754 55.66 21.1385 55.9261 20.7481C56.1685 20.3941 56.2822 19.8832 56.0414 19.6785C55.8266 19.4944 55.477 19.5464 55.2178 19.7747C54.7015 20.2294 54.5448 20.8745 54.6114 21.3559L54.6115 21.3556ZM34.0575 37.1119C31.0506 37.1316 28.4016 35.2803 28.0976 32.0733C27.9286 30.2962 28.4325 28.7125 29.4412 27.4077C30.3363 26.245 31.8509 25.2791 33.1329 25.0431C33.5501 24.967 34.1106 25.0137 34.3424 25.2906C34.7059 25.7124 34.6014 26.1757 34.2379 26.3606C33.2598 26.8584 32.0829 27.7107 31.5006 28.8745C31.0282 29.8244 30.9328 30.9691 31.6542 32.0597C32.8618 33.8772 36.2277 33.9272 39.3573 31.0286C40.1324 30.3192 40.826 29.6376 41.531 28.8303C42.9094 27.2591 43.3679 26.6865 45.2002 24.1528C45.2199 24.1233 45.2297 24.085 45.2199 24.0663C45.2051 24.0319 45.1805 24.027 45.1258 24.0221C43.9027 24.0565 42.8362 24.4194 41.7997 25.1916C41.5012 25.4087 41.0716 25.3782 40.8835 25.0924C40.6742 24.7693 40.8244 24.3488 41.1687 24.1113C42.8362 22.9551 44.6577 22.7455 46.5179 22.4325C46.5164 22.4325 46.647 22.4374 46.7533 22.2979C47.5169 21.3209 48.0936 20.4396 48.9076 19.4516C49.7278 18.4491 50.7872 17.5285 51.5967 16.837C52.7266 15.8685 53.4512 15.5425 54.1876 15.143C54.3817 15.0419 54.163 14.9211 54.1039 14.9211C49.9924 14.1507 45.7187 13.1538 41.6355 14.6608C38.8075 15.7129 37.5682 17.9486 38.1643 19.4425C38.5884 20.5022 39.9864 20.6745 41.2952 20.036C42.3822 19.505 43.3882 18.6492 44.1013 17.5476C44.5002 16.9358 45.3409 17.3772 44.8867 18.4395C43.6918 21.2393 41.4091 23.4602 38.6285 23.554C36.2621 23.6306 34.7353 21.895 34.7403 19.7539C34.7502 15.5307 39.4659 12.7488 44.4221 12.333C50.3908 11.8412 56.044 13.4262 61.9702 14.1428C66.5107 14.691 70.8639 14.7024 75.4278 13.6572C75.9673 13.5403 76.3459 13.8835 76.3107 14.4268C76.2664 15.2121 75.6561 15.9683 74.153 16.7856C72.4435 17.7203 70.6551 18.0039 68.7873 18.0191C64.2708 18.0584 60.0637 16.3015 55.7102 15.3584C55.7151 15.5485 55.7653 15.7748 55.6058 15.8947C53.1943 17.668 51.0145 19.4688 49.5546 21.998C49.5053 22.0564 49.5299 22.1119 49.6171 22.106C50.8846 22.0388 52.0245 22.0064 53.2079 21.9121C53.4147 21.8924 53.4226 21.8433 53.4043 21.6931C53.2994 20.8213 53.5551 19.8272 54.3243 19.1433C55.1116 18.4396 56.0973 18.3596 56.7508 18.8664C57.4937 19.4436 57.4279 20.4815 57.0216 21.2599C56.6079 22.0497 55.9247 22.4721 55.2689 22.6772C55.2689 22.6772 55.131 22.7067 55.1517 22.8314C55.1763 23.0307 56.071 23.5243 56.1474 23.6558C56.2213 23.781 56.1819 23.975 56.0474 24.1238C55.9529 24.2318 55.8046 24.3329 55.615 24.3295C55.4618 24.3265 55.3688 24.2735 55.1727 24.168C54.7718 23.9514 54.2708 23.5954 53.9366 23.1757C53.8228 23.0338 53.7646 23.0309 53.4805 23.0466C52.1999 23.1203 50.2033 23.3127 48.8505 23.4812C48.5225 23.5204 48.4742 23.5828 48.4067 23.6962C46.2498 27.242 43.9468 31.0657 41.4183 33.6258C38.7062 36.3707 36.4518 37.0934 34.0586 37.1121" fill="white"/>
<path d="M60.2041 8.5651C32.0871 8.5651 9.29613 16.3109 9.29613 25.7892C9.29613 35.2682 32.0871 43.0146 60.2041 43.0146C88.3206 43.0146 111.11 35.2682 111.11 25.7892C111.11 16.3109 88.3206 8.5651 60.2041 8.5651ZM60.2041 44.5756C31.0636 44.5756 7.44092 36.1647 7.44092 25.7892C7.44092 15.4121 31.0636 7.00269 60.2041 7.00269C89.3419 7.00269 112.963 15.4121 112.963 25.7892C112.963 36.1647 89.3419 44.5756 60.2041 44.5756Z" fill="white"/>
</svg>
