<svg width="120" height="52" viewBox="0 0 120 52" fill="none" xmlns="http://www.w3.org/2000/svg">
<path d="M30.908 13.8667H30.9818C31.2128 14.4291 30.8982 15.5145 30.6868 15.9663C30.6548 16.1775 30.6204 15.7085 30.6475 15.4506C30.6204 14.9497 30.7507 13.8716 30.908 13.8667ZM32.1248 15.2272C31.8962 15.4776 31.82 16.0965 31.9749 16.4427C32.2453 16.1579 32.4051 15.706 32.3067 15.3008C32.2772 15.0749 32.1248 15.2272 32.1248 15.2272Z" fill="white"/>
<path d="M12.7665 21.9335V14.6769C12.7649 14.5726 12.7426 14.4697 12.7008 14.3742C12.659 14.2786 12.5986 14.1923 12.5231 14.1203C12.4476 14.0483 12.3585 13.9921 12.261 13.9548C12.1635 13.9176 12.0596 13.9001 11.9553 13.9033H5.09685C4.88704 13.9 4.68434 13.9793 4.53255 14.124C4.38077 14.2688 4.29207 14.4674 4.28564 14.6769V36.4467C4.28955 36.6639 4.37518 36.8717 4.5255 37.0287C4.67582 37.1857 4.87981 37.2804 5.09685 37.2939H11.9553C12.1683 37.2872 12.3707 37.1996 12.5214 37.0491C12.6721 36.8985 12.7597 36.6963 12.7665 36.4835V28.7481H17.855V36.4835C17.8634 36.6958 17.9516 36.897 18.102 37.0472C18.2523 37.1973 18.4537 37.2854 18.6662 37.2939H25.5246C25.7424 37.2827 25.9478 37.1887 26.0985 37.0312C26.2493 36.8737 26.3342 36.6646 26.3358 36.4467V14.6769C26.3336 14.5727 26.3108 14.47 26.2688 14.3746C26.2268 14.2792 26.1665 14.1931 26.0911 14.121C26.0158 14.0489 25.927 13.9924 25.8298 13.9546C25.7326 13.9169 25.6289 13.8986 25.5246 13.9009H18.6662C18.5618 13.8983 18.458 13.9163 18.3606 13.954C18.2633 13.9916 18.1743 14.0481 18.0989 14.1203C18.0235 14.1924 17.9632 14.2787 17.9213 14.3742C17.8794 14.4698 17.8569 14.5726 17.855 14.6769V21.9335H12.7665ZM87.3609 19.5023C87.3547 19.2894 87.2672 19.0868 87.1164 18.9362C86.9656 18.7855 86.7628 18.6981 86.5497 18.692H81.0555C80.8431 18.7004 80.6417 18.7885 80.4913 18.9387C80.341 19.0889 80.2528 19.2901 80.2443 19.5023V36.4467C80.2482 36.6639 80.3339 36.8717 80.4842 37.0287C80.6345 37.1857 80.8385 37.2804 81.0555 37.2939H86.5497C86.7626 37.2872 86.9651 37.1996 87.1158 37.0491C87.2665 36.8985 87.3541 36.6963 87.3609 36.4835V19.5023ZM61.5128 32.4685C62.6091 34.239 64.3766 35.4742 66.1219 36.2257C70.1755 37.8194 75.2566 38.4456 79.0275 35.5995V28.1587C79.0302 28.0515 79.0111 27.945 78.9713 27.8454C78.9315 27.7459 78.8718 27.6555 78.7959 27.5797C78.7201 27.5039 78.6296 27.4443 78.5299 27.4045C78.4303 27.3647 78.3236 27.3456 78.2163 27.3483H72.8328C72.726 27.3473 72.6201 27.3676 72.5212 27.408C72.4224 27.4484 72.3326 27.508 72.257 27.5835C72.1815 27.6589 72.1218 27.7487 72.0814 27.8474C72.041 27.9462 72.0206 28.052 72.0216 28.1587V31.7686C71.1213 31.8391 70.2208 31.6335 69.4405 31.1792C68.3884 30.4622 67.3142 29.2883 67.4125 27.864C67.5084 26.4274 68.4154 25.4009 69.6986 24.8803C71.5939 24.1559 73.9489 24.0356 75.5983 25.5434C75.7366 25.6472 75.9097 25.6937 76.0815 25.6731C76.2532 25.6525 76.4104 25.5664 76.5202 25.4329L79.5438 21.602C79.5927 21.5343 79.6277 21.4576 79.6467 21.3764C79.6657 21.2951 79.6683 21.2108 79.6543 21.1285C79.6403 21.0463 79.6101 20.9676 79.5654 20.8971C79.5207 20.8266 79.4623 20.7657 79.3938 20.7179C75.2075 17.9233 70.7139 17.8718 66.267 19.9075C64.5462 20.659 62.9975 21.9801 61.8422 23.4806C60.8761 24.7649 60.5098 26.6926 60.4779 27.3483H55.3156C55.2088 27.3473 55.1029 27.3676 55.004 27.408C54.9052 27.4484 54.8154 27.508 54.7398 27.5835C54.6643 27.6589 54.6046 27.7487 54.5642 27.8474C54.5238 27.9462 54.5034 28.052 54.5044 28.1587V31.7686C53.6041 31.8388 52.7037 31.6332 51.9233 31.1792C50.8687 30.4622 49.792 29.2883 49.8953 27.864C49.9887 26.4274 50.8933 25.4009 52.1814 24.8803C54.0742 24.1534 56.4292 24.0331 58.0811 25.5434C58.3564 25.7668 58.7866 25.6981 59.0029 25.4329L61.9897 21.602C62.0451 21.5386 62.0865 21.4643 62.1112 21.3839C62.1358 21.3034 62.1432 21.2187 62.1327 21.1352C62.1223 21.0517 62.0943 20.9714 62.0505 20.8994C62.0068 20.8275 61.9484 20.7657 61.8791 20.7179C57.6903 17.9209 53.1942 17.8718 48.7522 19.9075C47.0266 20.659 45.4803 21.9801 44.3274 23.4806V19.5023C44.3243 19.2884 44.2378 19.0841 44.0863 18.9328C43.9349 18.7815 43.7304 18.6951 43.5162 18.692H38.2089C38.1023 18.6916 37.9967 18.7124 37.8981 18.753C37.7996 18.7936 37.71 18.8533 37.6346 18.9286C37.5592 19.0039 37.4995 19.0934 37.4588 19.1918C37.4182 19.2903 37.3974 19.3958 37.3977 19.5023V30.5898C37.3965 30.7667 37.36 30.9416 37.2906 31.1044C37.2211 31.2671 37.12 31.4144 36.9931 31.5378C36.8661 31.6611 36.7159 31.7581 36.5512 31.823C36.3865 31.8879 36.2105 31.9195 36.0334 31.9159C35.8582 31.9193 35.6841 31.8872 35.5215 31.8218C35.359 31.7563 35.2113 31.6588 35.0874 31.535C34.9634 31.4111 34.8658 31.2636 34.8002 31.1012C34.7347 30.9388 34.7027 30.7649 34.706 30.5898V19.5023C34.6964 19.2905 34.6078 19.0899 34.4577 18.94C34.3076 18.79 34.1068 18.7016 33.8948 18.692H28.5482C28.3348 18.6975 28.1317 18.7847 27.9808 18.9355C27.8298 19.0863 27.7426 19.2892 27.737 19.5023V28.6007C27.7148 31.4641 28.0664 33.9198 30.65 35.6732C32.4444 36.8666 34.1087 37.3799 36.0703 37.4044C39.4528 37.4364 42.6042 35.5921 43.998 32.5053C45.0846 34.2881 46.8594 35.4718 48.5703 36.2257C52.6583 37.8194 57.7419 38.4432 61.5128 35.5995V32.4685ZM112.066 18.7656C112.476 18.9326 112.877 19.1733 112.877 19.6129V22.9649C112.877 23.4118 112.506 23.9668 112.103 23.8121C110.901 23.3701 109.31 22.2306 108.01 23.4069C107.609 23.7384 107.621 24.4236 107.825 24.6225C109.359 26.01 112.378 26.3562 114.057 28.2692C115.746 30.165 115.844 31.6335 115.348 33.2396C114.546 35.7959 112.127 37.4339 109.374 37.5886C106.837 37.6967 103.708 37.4265 101.631 35.6363C100.544 36.8077 99.3028 37.2816 97.7222 37.2939H89.4995C89.3905 37.2917 89.283 37.268 89.1832 37.2242C89.0834 37.1803 88.9932 37.1173 88.9178 37.0386C88.8425 36.9598 88.7834 36.8671 88.744 36.7655C88.7046 36.6639 88.6857 36.5556 88.6883 36.4467V19.5023C88.6883 19.2874 88.7738 19.0813 88.9259 18.9293C89.078 18.7773 89.2844 18.692 89.4995 18.692H100.783L102.589 20.5337C104.799 18.3555 108.978 17.6237 112.066 18.7656Z" fill="black"/>
<path d="M114.758 20.2038C114.886 20.189 114.974 20.1595 114.979 20.0196C114.977 19.8673 114.814 19.8673 114.721 19.8722H114.426V20.2038H114.758ZM103.475 30.9597C103.118 30.7805 102.786 30.8296 102.626 31.0334L101.52 32.3963H95.7681V30.4072H99.7504C99.968 30.3954 100.173 30.3012 100.324 30.1438C100.474 29.9865 100.559 29.7777 100.562 29.56V26.1343C100.561 25.9195 100.475 25.7138 100.323 25.562C100.171 25.4101 99.9653 25.3245 99.7504 25.3239H95.7681V23.4453H101.078C100.554 28.1381 105.552 29.4691 108.6 31.1071C108.954 31.3158 109.138 31.8192 108.858 32.1753C107.956 32.966 106.899 32.8334 105.982 32.3227L103.475 30.9597Z" fill="white"/>
</svg>
