<svg width="120" height="52" viewBox="0 0 120 52" fill="none" xmlns="http://www.w3.org/2000/svg">
<path d="M34.0542 16.0671H38.9506V30.7428H43.9427V35.3765H34.0542V16.0671Z" fill="black"/>
<path d="M50.5234 16.0671V27.4604C50.5234 27.6623 50.5346 27.9153 50.558 28.2182C50.5825 28.5212 50.6334 28.8387 50.7129 29.1698C50.8545 29.6861 51.1022 30.1629 51.4497 30.6043C51.7982 31.0457 52.3372 31.2768 53.0668 31.2935C53.8128 31.2768 54.3579 31.0457 54.7085 30.6043C55.0559 30.1629 55.2944 29.6861 55.4208 29.1698C55.5002 28.8387 55.5512 28.5212 55.5757 28.2182C55.5991 27.9153 55.6093 27.6623 55.6093 27.4604V16.0671H60.5077V27.5697C60.5077 30.4575 59.83 32.5677 58.4747 33.9003C57.1205 35.2339 55.3566 35.9012 53.185 35.9012L52.9486 35.9282C50.7934 35.9095 49.0325 35.2339 47.6701 33.9003C46.3077 32.5677 45.626 30.4575 45.626 27.5697V16.0671H50.5234Z" fill="black"/>
<path d="M63.3184 16.0671H68.2147V23.7896L72.9929 16.0671H78.6994L72.3764 25.4189L78.8655 35.3765H72.8034L68.2147 27.4874V35.3765H63.3184V16.0671Z" fill="black"/>
<path d="M79.8729 32.8874C78.3505 30.847 77.5913 28.4651 77.5913 25.7427C77.5913 23.0402 78.3393 20.6635 79.8362 18.6136C81.3341 16.5628 83.5658 15.5374 86.5301 15.5374H86.7675C89.7298 15.5374 91.9615 16.5628 93.4594 18.6136C94.9563 20.6635 95.7053 23.0402 95.7053 25.7427C95.7053 28.4651 94.9563 30.8376 93.4594 32.8604C91.9615 34.8842 89.7298 35.9034 86.7675 35.9221L86.5301 35.9502C83.6137 35.9502 81.3943 34.9289 79.8729 32.8874ZM87.1232 31.2738C87.2974 31.2478 87.4717 31.1968 87.6459 31.1218C88.4071 30.8834 89.1011 30.3462 89.7268 29.5082C90.3524 28.6722 90.6673 27.4178 90.6673 25.7427C90.6673 24.0708 90.3494 22.8153 89.7156 21.9783C89.0807 21.1413 88.3919 20.6041 87.6459 20.3636C87.4717 20.3106 87.3025 20.2637 87.1354 20.2283C86.9693 20.1898 86.8063 20.1711 86.6483 20.1711C86.4741 20.1711 86.2917 20.1898 86.1011 20.2283C85.9105 20.2637 85.7282 20.3178 85.5539 20.3928C84.8253 20.6499 84.1558 21.1965 83.5454 22.0335C82.936 22.8705 82.6303 24.1073 82.6303 25.7427C82.6303 27.3803 82.936 28.6171 83.5454 29.4541C84.1558 30.289 84.8253 30.8376 85.5539 31.0948C85.7282 31.1676 85.9075 31.2238 86.0899 31.2603C86.2723 31.2967 86.4496 31.3155 86.6239 31.3155C86.7828 31.3155 86.9489 31.3009 87.1232 31.2738Z" fill="black"/>
<path d="M97.9316 16.0671H102.829V35.3765H97.9316V16.0671Z" fill="black"/>
<path d="M105.826 16.0671H110.721V30.7428H115.714V35.3765H105.826V16.0671Z" fill="black"/>
<path d="M4.28564 38.7524H29.703V13H4.28564V38.7524Z" fill="#ED1A3A"/>
<path fill-rule="evenodd" clip-rule="evenodd" d="M26.9886 17.6894L24.0804 22.4991C23.7624 23.0394 23.8083 23.4631 23.9571 23.8743L28.3765 35.4247H10.0801C8.43745 35.4247 7.16572 34.0786 7.16572 32.4733L7.14941 17.094C7.19527 15.1066 10.0251 15.0722 10.0801 17.0856V31.5C10.075 31.957 10.4663 32.4733 10.983 32.4608H24.384L20.9163 24.1127C20.8266 23.7941 20.7635 23.4756 20.7635 23.157C20.7635 22.8041 20.9163 22.2388 21.1436 21.7766L24.327 16.4183C24.5624 15.9363 25.0382 15.6146 25.6018 15.5896C26.3976 15.5553 27.0763 16.1122 27.1099 16.9732C27.113 17.145 27.0722 17.5218 26.9886 17.6894Z" fill="white"/>
<path fill-rule="evenodd" clip-rule="evenodd" d="M16.8807 27.3904V17.0768C16.8807 15.0644 19.7513 15.0478 19.7839 17.0768V27.505C19.7839 29.89 18.0404 31.4661 15.9045 31.4661C13.7687 31.4661 12.02 29.8525 12.02 27.505V17.0768C12.02 15.0644 14.9242 15.0644 14.9242 17.0768V27.3904C14.9242 28.775 16.8807 28.8583 16.8807 27.3904Z" fill="white"/>
</svg>
