<svg width="111" height="36" viewBox="0 0 111 36" fill="none" xmlns="http://www.w3.org/2000/svg">
<g clip-path="url(#clip0_1349_3208)">
<path d="M110.027 2.34106V26.1471H106.556V2.34106H110.027Z" fill="#2C2D2E"/>
<path d="M101.923 9.28458V26.1472H98.4511V9.28458H101.923ZM102.584 4.22581C102.584 5.48224 101.559 6.63947 100.203 6.63947C98.914 6.63947 97.7898 5.58143 97.7898 4.22581C97.7898 2.90326 98.914 1.84521 100.203 1.84521C101.559 1.84521 102.584 3.00245 102.584 4.22581Z" fill="#2C2D2E"/>
<path fill-rule="evenodd" clip-rule="evenodd" d="M84.7452 8.85522C79.8428 8.85522 75.8969 12.8781 75.8969 17.8053C75.8969 22.7325 79.8428 26.7553 84.7452 26.7553C86.9978 26.7553 89.0485 25.906 90.6071 24.5099L91.3693 26.145H94.0001V9.262H91.3693L90.5564 11.0556C89.0041 9.68628 86.9735 8.85522 84.7452 8.85522ZM84.9487 12.2105C81.9244 12.2105 79.4444 14.6996 79.4444 17.8053C79.4444 20.911 81.9244 23.4 84.9487 23.4C87.9729 23.4 90.453 20.911 90.453 17.8053C90.453 14.6996 87.9729 12.2105 84.9487 12.2105Z" fill="#2C2D2E"/>
<path d="M54.1972 12.327C51.8497 12.327 50.0311 14.1124 50.0311 16.493V26.1476H46.5594V9.28505H49.2207L50.0311 10.8391C51.2214 9.54956 52.9408 8.85522 54.7923 8.85522C56.9746 8.85522 58.7931 9.81408 60.0164 11.4673C61.4051 9.84714 63.4881 8.85522 65.8687 8.85522C70.134 8.85522 72.9774 11.9963 72.9774 16.493V26.1476H69.5057V16.6253C69.5057 14.0463 67.9848 12.327 65.6703 12.327C63.3228 12.327 61.5043 14.1124 61.5043 16.493V26.1476H58.0326V16.6253C58.0326 14.0463 56.5117 12.327 54.1972 12.327Z" fill="#2C2D2E"/>
<path d="M24.1377 17.7128C24.1377 20.6508 21.7476 23.041 18.8095 23.041C15.8713 23.041 13.4812 20.6508 13.4812 17.7128C13.4812 14.7747 15.8713 12.3845 18.8095 12.3845C21.7476 12.3845 24.1377 14.7747 24.1377 17.7128ZM18.8095 0C9.04307 0 1.09668 7.9464 1.09668 17.7128C1.09668 27.4791 9.04307 35.4255 18.8095 35.4255C22.3875 35.4255 25.8381 34.3605 28.7873 32.3446L28.8382 32.3092L26.4514 29.535L26.4116 29.5615C24.141 31.0217 21.5117 31.7944 18.8095 31.7944C11.0446 31.7944 4.72779 25.4776 4.72779 17.7128C4.72779 9.94794 11.0446 3.63112 18.8095 3.63112C26.5743 3.63112 32.8911 9.94794 32.8911 17.7128C32.8911 18.7191 32.7793 19.7376 32.559 20.7394C32.114 22.5671 30.8342 23.1273 29.8733 23.0532C28.9068 22.9745 27.7765 22.286 27.7688 20.601V19.3168V17.7128C27.7688 12.772 23.7502 8.75342 18.8095 8.75342C13.8687 8.75342 9.85011 12.772 9.85011 17.7128C9.85011 22.6536 13.8687 26.6721 18.8095 26.6721C21.2096 26.6721 23.4601 25.7333 25.1573 24.0274C26.1436 25.5628 27.7522 26.5259 29.5821 26.6721C29.7393 26.6853 29.8999 26.6921 30.0593 26.6921C31.3468 26.6921 32.6243 26.2614 33.6538 25.4788C34.7155 24.6728 35.5081 23.5071 35.9466 22.1066C36.0162 21.8808 36.1447 21.3627 36.1458 21.3594L36.1491 21.3406C36.4071 20.2169 36.5222 19.0966 36.5222 17.7128C36.5222 7.9464 28.5758 0 18.8095 0Z" fill="#0077FF"/>
</g>
<defs>
<clipPath id="clip0_1349_3208">
<rect width="111" height="35.4255" fill="white"/>
</clipPath>
</defs>
</svg>
