<svg width="120" height="52" viewBox="0 0 120 52" fill="none" xmlns="http://www.w3.org/2000/svg">
<path d="M63.2304 18.5711C63.0758 18.7588 62.9883 18.9683 62.9883 19.3327V29.3514H62.9329C62.9329 29.3514 57.4561 19.5751 57.1913 19.1231C57.0039 18.8026 56.7946 18.5821 56.519 18.4163C56.2433 18.2623 55.9567 18.163 55.4061 18.163H53.599C53.1796 18.163 52.9157 18.306 52.7282 18.5273C52.5736 18.7142 52.4854 18.9245 52.4854 19.2881V33.4892C52.4854 33.8536 52.5736 34.0632 52.7282 34.2508C52.9157 34.4713 53.1796 34.6144 53.599 34.6144H54.6236C55.0422 34.6144 55.3069 34.4713 55.4943 34.2508C55.6482 34.0632 55.7364 33.8536 55.7364 33.4892V23.2274H55.7919C55.7919 23.2274 61.478 33.3125 61.7099 33.6878C62.0293 34.2172 62.569 34.6144 63.3405 34.6144H65.093C65.5116 34.6144 65.7763 34.4713 65.9637 34.2508C66.1176 34.0632 66.2058 33.8536 66.2058 33.4892V20.6784H89.2274C89.4594 20.6784 89.6351 20.6127 89.7678 20.5024C89.9108 20.3695 89.9771 20.1928 89.9771 19.9285V18.9574C89.9771 18.6923 89.9108 18.5156 89.7678 18.3835C89.6351 18.2732 89.4594 18.2067 89.2274 18.2067H64.1012C63.6826 18.2067 63.4179 18.3506 63.2304 18.5711ZM73.2812 22.3665C69.4569 22.3665 67.3078 25.3573 67.3078 28.5131C67.3078 31.8785 69.6116 34.8357 73.3031 34.8357C75.1438 34.8357 76.9509 34.1406 77.9864 32.9153C78.4386 32.386 78.8025 31.6463 78.8025 31.1943C78.8025 31.0395 78.769 30.9074 78.6815 30.8081C78.5932 30.6978 78.4605 30.6313 78.2293 30.6313H76.455C76.102 30.6313 75.8599 30.7635 75.6834 31.0286C75.1657 31.7901 74.416 32.1874 73.314 32.1874C71.6608 32.1874 70.5924 30.9293 70.5151 29.55H78.1856C78.5269 29.55 78.769 29.4726 78.9345 29.3076C79.1219 29.1309 79.2102 28.8767 79.2102 28.4021C79.2102 26.9571 78.758 25.4566 77.8107 24.3088C76.8408 23.15 75.364 22.3665 73.2812 22.3665ZM85.1056 22.3665C82.0864 22.3665 80.1028 23.8013 80.1028 26.0962C80.1028 26.9126 80.4004 27.5748 80.8853 28.0933C81.4476 28.7008 82.252 29.1199 83.4203 29.4178L85.9435 30.0574C86.6378 30.2341 87.2547 30.4437 87.2547 31.0505C87.2547 31.9887 86.2629 32.3085 85.2055 32.3085C84.687 32.3085 84.1474 32.2092 83.7061 31.9887C83.3976 31.8339 83.1337 31.6134 82.9463 31.3155C82.7807 31.0614 82.726 30.8737 82.4722 30.7306C82.3176 30.6423 82.1302 30.6313 81.8771 30.6313H80.5105C80.2129 30.6313 80.07 30.7197 79.9708 30.8409C79.8717 30.9621 79.8381 31.1388 79.8381 31.3155C79.8381 31.7565 79.9927 32.3085 80.3566 32.8051C81.1938 33.9302 82.9463 34.8357 85.1829 34.8357C87.3875 34.8357 90.4402 33.9193 90.4402 30.9621C90.4402 30.2013 90.2192 29.55 89.8116 29.0206C89.2938 28.3474 88.5558 27.8837 87.2993 27.5639L84.7979 26.9235C83.7616 26.6592 83.2766 26.4716 83.2766 25.8312C83.2766 25.2135 83.8279 24.717 85.1056 24.717C85.8553 24.717 86.5386 24.8827 86.9799 25.3464C87.343 25.7327 87.2774 25.9313 87.564 26.0853C87.7397 26.1737 87.9381 26.1737 88.2473 26.1737H89.4922C89.6905 26.1737 89.8342 26.1408 89.9436 26.0188C90.0326 25.9195 90.0872 25.7655 90.0872 25.5114C90.0872 24.9375 89.7124 24.1985 89.0517 23.6356C88.17 22.874 86.7815 22.3665 85.1056 22.3665ZM91.9717 22.7864H91.3547C91.1236 22.7864 90.9471 22.8521 90.8151 22.9623C90.6714 23.0953 90.605 23.272 90.605 23.5363V24.2978C90.605 24.5629 90.6714 24.7388 90.8151 24.8718C90.9471 24.982 91.1236 25.0485 91.3547 25.0485H91.9717V30.5539C91.9717 31.9661 92.3575 32.8489 93.0736 33.5557C93.7351 34.2063 94.5949 34.6144 96.0935 34.6144H97.0299C97.2618 34.6144 97.4375 34.5487 97.5703 34.4385C97.7132 34.3056 97.8015 34.1288 97.8015 33.8646V32.9044C97.8015 32.6393 97.7132 32.4634 97.5703 32.3304C97.4375 32.2202 97.2618 32.1537 97.0299 32.1537H96.8979C96.3028 32.1537 95.8952 31.9997 95.6195 31.7346C95.2891 31.4258 95.1236 30.9511 95.1236 30.3334V25.0485H97.1298C97.361 25.0485 97.5375 24.982 97.6695 24.8718C97.8124 24.7388 97.8788 24.5629 97.8788 24.2978V23.5363C97.8788 23.272 97.8124 23.0953 97.6695 22.9623C97.5375 22.8521 97.361 22.7864 97.1298 22.7864H95.1345V19.1888C95.1345 18.9019 95.0463 18.6923 94.9143 18.5273C94.7487 18.3287 94.5176 18.2067 94.1763 18.2067H92.9307C92.5886 18.2067 92.3575 18.3287 92.1919 18.5273C92.0599 18.6923 91.9717 18.9019 91.9717 19.1888V22.7864ZM98.7167 33.6323C98.7167 33.9193 98.8042 34.1288 98.937 34.2946C99.1017 34.4932 99.3337 34.6144 99.675 34.6144H100.986C101.328 34.6144 101.559 34.4932 101.725 34.2946C101.857 34.1288 101.945 33.9193 101.945 33.6323V19.1896C101.945 18.9026 101.857 18.6931 101.725 18.5273C101.559 18.3287 101.328 18.2067 100.986 18.2067H99.675C99.3337 18.2067 99.1017 18.3287 98.937 18.5273C98.8042 18.6931 98.7167 18.9026 98.7167 19.1896V33.6323ZM70.537 27.1995C70.6799 25.8421 71.7162 24.8272 73.2922 24.8272C74.8353 24.8272 75.9037 25.8421 76.0474 27.1995H70.537ZM113.88 20.6784C114.112 20.6784 114.288 20.6127 114.42 20.5024C114.564 20.3695 114.63 20.1928 114.63 19.9285V18.9019C114.63 18.5047 114.553 18.306 114.42 18.163C114.299 18.03 114.101 17.9534 113.88 17.9534C113.704 17.9534 113.528 17.9753 113.231 18.0081L104.436 18.88C104.183 18.9019 104.062 18.9793 103.973 19.0786C103.874 19.1888 103.83 19.3327 103.83 19.5313V20.1044C103.83 20.3257 103.874 20.425 103.951 20.5134C104.05 20.6236 104.194 20.6784 104.392 20.6784H113.88ZM109.021 22.3665C105.196 22.3665 103.047 25.3573 103.047 28.5131C103.047 31.8785 105.351 34.8357 109.042 34.8357C110.883 34.8357 112.69 34.1406 113.726 32.9153C114.178 32.386 114.542 31.6463 114.542 31.1943C114.542 31.0395 114.508 30.9074 114.42 30.8081C114.333 30.6978 114.2 30.6313 113.969 30.6313H112.194C111.841 30.6313 111.599 30.7635 111.423 31.0286C110.905 31.7901 110.155 32.1874 109.053 32.1874C107.4 32.1874 106.331 30.9293 106.254 29.55H113.947C114.288 29.55 114.531 29.4726 114.696 29.3076C114.883 29.1309 114.971 28.8767 114.971 28.4021C114.971 26.9571 114.519 25.4566 113.572 24.3088C112.602 23.15 111.103 22.3665 109.021 22.3665ZM106.276 27.1995C106.42 25.8421 107.456 24.8272 109.031 24.8272C110.575 24.8272 111.643 25.8421 111.787 27.1995H106.276Z" fill="#055A98"/>
<path d="M40.0565 20.8111C37.2037 16.5505 34.6969 15.1149 33.9917 14.4393C33.217 13.6941 32.6266 12.8497 32.2509 12.4431C31.4153 11.529 30.3337 10.4007 28.5547 10.4007C26.8374 10.4007 25.7027 11.5212 25.3341 12.4892C25.2271 12.7652 25.1428 13.103 25.0662 13.2258C24.8975 13.5026 24.1385 14.7998 23.8237 15.3143H25.2427L24.5524 16.6193C25.3575 16.4426 25.9323 16.312 26.6992 16.312C27.3817 16.312 27.8722 16.4739 28.0869 16.9031C28.486 17.7022 28.486 20.1199 29.1607 21.9402C29.7894 23.651 31.3232 25.3251 33.0483 26.6074C33.0709 26.6223 33.0944 26.6301 33.1248 26.6301C33.2092 26.6301 33.2631 26.5691 33.2631 26.5074C33.2631 26.4612 33.2474 26.4307 33.2092 26.3924C31.7675 24.949 30.5946 23.3523 29.9659 21.6024C29.3443 19.8978 29.4442 17.5021 28.8999 16.4348C28.5391 15.7287 27.773 15.5449 27.067 15.5449C26.5 15.5449 25.9706 15.6599 25.7253 15.713L26.3462 14.6614H25.2958C25.5184 14.2704 25.748 13.9092 25.8636 13.6941C25.9627 13.5096 26.0018 13.2797 26.1244 12.9654C26.5227 11.9591 27.4044 11.3218 28.5547 11.3218C29.9963 11.3218 30.8398 12.2507 31.6754 13.1796C32.0588 13.6097 32.6875 14.5081 33.4161 15.1759C33.9144 15.6364 34.8656 16.1509 36.3298 17.6639C37.1733 18.5389 38.1549 19.675 39.1897 21.195C42.8937 26.6223 45.324 31.4053 46.6813 35.1366L46.6587 35.1522C42.7711 32.5109 39.4044 30.0158 36.6906 26.9374C34.7656 24.7496 33.0944 22.2162 31.6371 18.9838C31.5372 18.7688 31.4536 18.5694 31.3614 18.3622C31.3232 18.2777 31.2849 18.2543 31.2232 18.2543C31.1467 18.2543 31.0928 18.3082 31.0928 18.3848C31.0928 18.4693 31.1311 18.6538 31.2154 19.0221C31.9901 22.3695 34.1369 25.3712 36.4298 27.8663C38.7149 30.3466 41.2982 32.4804 43.4224 34.0317L45.0788 38.7756C45.1171 38.8913 45.1631 39.0141 45.1631 39.129C45.1631 39.2134 45.1397 39.2823 45.0866 39.3284C45.0405 39.3745 44.9796 39.398 44.8414 39.398H44.3432C44.1284 39.398 44.0433 39.3667 43.9667 39.3057C43.8902 39.2439 43.8371 39.1517 43.798 39.0446C43.6528 38.5989 42.7781 36.1038 42.6102 35.5971C42.579 35.5056 42.5251 35.4743 42.4642 35.4743C42.3877 35.4743 42.3338 35.5361 42.3338 35.6049C42.3338 35.6667 42.3564 35.7355 42.3955 35.9505C42.6173 37.0866 42.8781 38.3612 42.9851 38.8452C43.0319 39.0672 43.085 39.2752 43.085 39.4285C43.085 39.5661 43.0546 39.6435 42.9398 39.7584L42.4259 40.2808C42.3033 40.4035 42.2338 40.434 42.1346 40.434C42.012 40.434 41.9121 40.3496 41.866 40.1345C41.2834 37.4088 40.4017 34.0317 40.1713 33.0942C40.1174 32.8878 40.0792 32.772 39.9566 32.772C39.8496 32.772 39.8113 32.8487 39.8113 32.9409C39.8113 33.0097 39.8261 33.0942 39.834 33.156C39.9722 34.1232 40.5321 37.6473 41.1374 40.8641C41.2451 41.4169 41.4521 41.7234 41.9277 41.7234C42.1424 41.7234 42.3486 41.6389 42.5407 41.4552C42.8554 41.1401 42.9468 41.0556 43.3232 40.6874C43.5911 40.4262 43.7754 40.3191 44.2354 40.3191H45.3701C45.6387 40.3191 45.784 40.2503 45.9144 40.1267C46.037 40.0118 46.1136 39.8507 46.1136 39.62C46.1136 39.3823 46.0526 39.1908 45.9683 38.9523C45.677 38.1696 44.7414 35.5205 44.465 34.7761L44.4884 34.7605C45.4466 35.49 46.8422 36.4189 47.456 36.4189C47.6473 36.4189 47.7629 36.3344 47.7629 36.035C47.7629 34.6228 45.4162 28.8109 40.0565 20.8111Z" fill="#055A98"/>
<path d="M13.7328 11.8902C13.8937 11.5368 14.2466 11.2913 14.6684 11.2913C15.2431 11.2913 15.7031 11.7369 15.7031 12.3281C15.7031 12.6729 15.5422 12.9731 15.2892 13.1569C15.3431 13.3571 15.3814 13.533 15.3814 13.7019C15.3814 14.347 14.9979 14.7997 14.2927 15.0382C14.2006 15.4291 14.0319 15.7826 13.7554 16.0437C13.2954 16.4886 12.8277 16.4886 12.8277 16.6732C12.8277 16.7732 12.8972 16.8342 13.0885 16.8342C13.9397 16.8342 14.7753 16.3588 14.8753 15.5675C15.6883 15.2915 16.1787 14.4697 16.1787 13.8176C16.1787 13.6479 16.1631 13.5025 16.0944 13.3649C16.3169 13.1491 16.5778 12.7808 16.5778 12.2358C16.5778 11.7596 16.37 11.2764 16.0022 10.923C15.6805 10.6079 15.2275 10.4007 14.6988 10.4007C13.9319 10.4007 13.4337 10.8159 13.1502 11.2224C12.3138 11.2224 11.233 12.1514 11.233 13.4798H11.1182C11.0409 13.0193 10.566 12.7112 10.167 12.6885C9.84522 11.7213 9.11659 10.8925 7.92018 10.8925C7.78273 10.8925 7.61405 10.9003 7.46801 10.923C7.1158 10.6 6.72455 10.4007 6.18023 10.4007C5.13688 10.4007 4.28564 11.2381 4.28564 12.2968C4.28564 12.9575 4.58475 13.4102 5.1525 13.8098C5.1525 13.8098 5.14469 13.8942 5.14469 13.9326C5.14469 14.777 6.06465 16.0977 7.42974 16.0977C7.42974 16.3119 7.69839 16.6044 7.99749 16.6575V16.7654H7.88191C6.00373 16.7654 5.20638 17.6717 5.20638 18.2776C4.64644 18.5083 4.28564 19.1299 4.28564 19.7054C4.28564 20.8494 5.12204 21.6633 6.2263 21.6633C6.59413 21.6633 6.96976 21.5179 7.2306 21.3177C7.42193 21.3865 7.66715 21.4248 7.92018 21.4248C8.44966 21.4248 9.04006 21.2411 9.45396 20.6343C9.51566 20.6422 9.56876 20.6422 9.63046 20.6422C10.3052 20.6422 10.8878 20.1965 11.1947 19.6132C11.2712 19.4677 11.3017 19.3528 11.3017 19.2675C11.3017 19.1839 11.2634 19.1143 11.1791 19.1143C11.0721 19.1143 11.0565 19.2144 10.8651 19.3911C10.4356 19.7828 9.77571 19.9283 9.10097 19.9283C8.77141 20.4123 8.36532 20.6656 7.89753 20.6656C7.55235 20.6656 7.28449 20.5733 7.00803 20.3888C6.78546 20.6343 6.50979 20.7344 6.24114 20.7344C5.6359 20.7344 5.20638 20.3122 5.20638 19.6976C5.20638 19.2675 5.48206 18.8844 5.8655 18.7382C5.93423 17.9782 6.74719 17.4637 7.7593 17.4637C7.88972 17.4637 8.02014 17.4715 8.15837 17.4871C8.31143 17.2416 8.67926 16.9805 9.20093 16.9109C9.30871 16.896 9.39227 16.8882 9.45396 16.8577C9.51566 16.8264 9.54611 16.7654 9.54611 16.6958C9.54611 16.6348 9.52269 16.5809 9.46177 16.5426C9.40789 16.5121 9.31573 16.4972 9.20874 16.4738C8.72534 16.3815 8.15056 16.082 7.85927 15.3525C6.70112 15.3525 5.84988 14.4236 5.84988 13.3797V13.3109C5.46644 13.1569 5.20638 12.7886 5.20638 12.3507C5.20638 11.7753 5.65855 11.3147 6.23333 11.3147C6.57851 11.3147 6.87761 11.4836 7.06973 11.7369C7.2306 11.6908 7.41412 11.6752 7.59062 11.6752C8.44966 11.6752 9.36962 12.2202 9.54611 13.2797C10.6504 13.3797 10.9112 14.3165 10.9799 14.7082C11.0182 14.9076 11.0487 15.0765 11.1791 15.0765C11.3173 15.0765 11.3478 14.9225 11.3938 14.7153C11.4782 14.3243 11.6242 14.0092 11.9155 13.7637C11.9155 12.7573 12.6668 11.8902 13.7328 11.8902Z" fill="#055A98"/>
<path d="M15.9643 17.9096C15.6035 18.4241 15.3434 18.6775 14.5226 19.6447C13.4418 20.927 12.874 21.9639 11.9307 24.2666C12.0845 24.251 12.3071 24.2361 12.5523 24.2361C12.6749 24.2361 12.7741 24.2361 12.9357 24.2431L13.0505 23.9976C13.58 22.8615 14.2923 21.3258 15.2895 20.1436L15.6347 19.737C16.6617 18.532 17.2981 17.8174 17.6972 16.1746C17.8354 15.5913 17.9502 15.0697 18.3415 14.6929C18.6937 14.3551 19.1388 14.2096 19.591 14.2096C19.9744 14.2096 20.2587 14.3019 20.6726 14.4778C21.0482 14.6389 21.1857 14.6702 21.5847 14.6702C21.723 14.6702 21.8222 14.6624 21.9143 14.6545L21.3778 15.3762L22.1064 15.8907C21.1935 16.1589 20.7109 17.0425 20.5492 17.4491C20.5188 17.5335 20.5039 17.5875 20.5039 17.6415C20.5039 17.7032 20.5344 17.7642 20.6265 17.7642C20.7257 17.7642 20.8022 17.6876 20.9327 17.5335C21.3778 16.9964 21.7308 16.6273 23.3708 16.1136L22.2134 15.2378L23.0873 13.9563H22.2673C21.7456 13.9563 21.4004 13.9485 20.9483 13.7413C20.3345 13.4574 20.0205 13.3347 19.4762 13.3347C18.8093 13.3347 18.2032 13.5724 17.705 14.0329C17.1294 14.5623 16.9529 15.2691 16.7468 16.0448C16.5851 16.6429 16.3938 17.3037 15.9643 17.9096Z" fill="#055A98"/>
<path d="M17.7279 23.1375C17.2906 23.7287 16.6924 24.5035 16.2324 25.3253C16.3785 25.3949 16.8619 25.6561 17.0306 25.7476C17.5593 24.9492 18.2957 23.9671 18.7783 23.222C19.2156 22.5464 19.3921 22.2548 19.4226 21.3485C19.4304 21.1953 19.4304 21.049 19.4452 20.9036C19.4835 20.4352 19.6069 19.9591 20.0513 19.522C20.3808 19.1912 20.8564 19.0231 21.332 19.0231C21.792 19.0231 22.0599 19.1529 22.4589 19.1529C22.7424 19.1529 22.9494 19.0841 23.1337 19.0153L23.2797 18.9613L22.9267 19.8066L23.7545 20.1436C23.2258 20.4736 22.0677 21.8943 22.0677 23.5754C22.0677 24.1822 22.1598 24.742 22.2902 25.2409C22.3059 25.2948 22.3363 25.3488 22.4207 25.3488C22.4972 25.3488 22.5511 25.3027 22.5589 25.2182L22.5667 25.0415C22.5893 24.527 22.6276 23.7138 22.8346 22.9843C23.1797 21.7559 24.1075 20.6041 25.0353 20.0513L23.7163 19.4758L24.284 18.0864L23.6631 18.217C23.2875 18.2936 23.0111 18.3624 22.6815 18.3624C22.4667 18.3624 22.2215 18.3319 21.9302 18.2623C21.7077 18.2091 21.4695 18.163 21.1329 18.163C20.5269 18.163 19.8748 18.3929 19.4304 18.8229C18.6174 19.5986 18.5714 20.4352 18.5175 21.1804C18.4488 22.1703 18.2644 22.4158 17.7279 23.1375Z" fill="#055A98"/>
<path d="M37.4031 23.6046C37.3492 23.5357 37.3031 23.5045 37.2422 23.5045C37.1501 23.5045 37.104 23.5662 37.104 23.635C37.104 23.743 37.1805 23.8735 37.3727 24.1965C37.9552 25.1864 38.6761 26.1841 39.5656 27.1216C40.5238 28.142 41.6507 29.0936 42.8549 29.9459L43.2305 30.207C43.2844 30.2461 43.3227 30.2688 43.3688 30.2688C43.4453 30.2688 43.4992 30.1922 43.4992 30.1304C43.4992 30.0921 43.4836 30.053 43.4375 30.0147C42.3184 28.9943 41.1142 27.7503 39.9873 26.5531C39.1048 25.6086 38.2005 24.6109 37.4031 23.6046Z" fill="#055A98"/>
<path d="M12.7285 20.1277C12.8433 19.9361 13.1885 19.4678 13.3267 19.3215C12.7363 18.1244 11.7703 16.9805 11.3486 16.527L10.9956 16.8726C11.4025 17.4637 12.0842 18.6076 12.7285 20.1277Z" fill="#055A98"/>
<path d="M7.10778 13.1962C7.03828 13.1344 7.02344 13.0961 7.02344 13.05C7.02344 12.9968 7.0617 12.935 7.14605 12.935C7.1765 12.935 7.20696 12.9428 7.24601 12.9585C7.81298 13.1884 8.29638 13.4573 8.72591 13.7873C9.08592 14.0633 9.43891 14.4019 9.78331 14.8085L9.46156 15.1768C9.06328 14.846 7.77471 13.7646 7.10778 13.1962Z" fill="#055A98"/>
<path d="M12.5443 15.7671L12.1304 15.5137C12.3982 14.8765 12.7286 14.2932 13.1191 13.8553C13.3955 13.541 13.6563 13.2869 13.9476 13.0343C14.0164 12.9804 14.0546 12.9342 14.1234 12.9342C14.2007 12.9342 14.2546 12.996 14.2546 13.057C14.2546 13.0875 14.2389 13.1258 14.2085 13.1719C13.7407 13.9014 12.8278 15.3449 12.5443 15.7671Z" fill="#055A98"/>
<path d="M7.34597 19.3298C7.24601 19.3681 7.19993 19.3916 7.14683 19.3916C7.06248 19.3916 7.02344 19.322 7.02344 19.2681C7.02344 19.2149 7.04687 19.1844 7.10075 19.1375C8.04336 18.4009 8.87194 18.1093 10.0145 17.9169L10.1519 18.3782L7.34597 19.3298Z" fill="#055A98"/>
<path d="M27.0132 13.3727C27.0132 13.1037 27.1514 12.6197 27.6497 12.6197C27.8183 12.6197 27.9792 12.658 28.1096 12.7198C28.2939 12.8042 28.4165 12.927 28.4165 13.0576C28.4165 13.196 28.2783 13.3344 28.0714 13.5033C27.8566 13.6792 27.5809 13.8411 27.3584 13.8411C27.0905 13.8411 27.0132 13.5869 27.0132 13.3727Z" fill="#055A98"/>
<path d="M19.2305 15.6134C19.2305 15.2834 19.4296 14.9222 19.8131 14.9222C19.9817 14.9222 20.1809 14.991 20.3269 15.1302C20.4113 15.2068 20.4495 15.2905 20.4495 15.3757C20.4495 15.5602 20.273 15.7361 20.0661 15.8589C19.9052 15.9512 19.7365 16.0129 19.5913 16.0129C19.3531 16.0129 19.2305 15.8659 19.2305 15.6134Z" fill="#055A98"/>
<path d="M21.0327 20.35C21.0327 20.2734 21.0405 20.1811 21.071 20.0888C21.1327 19.8894 21.2623 19.6971 21.5848 19.6971C21.7309 19.6971 21.891 19.7354 22.0214 19.8285C22.137 19.9051 22.1831 20.0044 22.1831 20.1045C22.1831 20.4344 21.6309 20.8184 21.3545 20.8184C21.1553 20.8184 21.0327 20.626 21.0327 20.35Z" fill="#055A98"/>
<path d="M18.0111 30.0386C16.9764 30.0386 16.5156 29.5475 16.5156 28.9259C16.5156 27.8351 18.425 26.7686 20.1424 26.1079L20.5875 26.6842C19.5293 27.1056 17.3981 28.0126 17.3981 28.7953C17.3981 29.0713 17.559 29.2715 18.2025 29.2715C19.3224 29.2715 20.5266 28.7257 21.6379 28.1807C21.7222 28.1424 21.8222 28.1041 21.9143 28.1041C22.0596 28.1041 22.1517 28.1503 22.2587 28.3035L22.443 28.5568C21.1474 29.2715 19.5293 30.0386 18.0111 30.0386Z" fill="#055A98"/>
<path d="M20.864 30.3301C19.8519 30.8978 18.8015 31.2746 17.8738 31.2746C16.8382 31.2746 15.9183 30.8289 15.1514 29.6694C14.8296 29.1783 14.5766 28.5645 14.2697 28.0195C13.9019 27.3745 13.5028 27.0289 12.8054 27.0289C12.1689 27.0289 11.5473 27.29 10.8882 27.5738L10.9186 27.7201C10.9725 27.9578 11.0647 28.1267 11.2865 28.1267C11.3864 28.1267 11.4864 28.0813 11.5403 28.0657C11.9081 27.9499 12.176 27.8499 12.5524 27.8499C13.1272 27.8499 13.4028 28.1884 13.7941 29.0173L13.9401 29.3245C13.5411 29.4629 12.6055 29.5318 11.9081 29.5318H11.5785L11.6324 29.8617C11.6551 30.0001 11.709 30.1151 11.8238 30.169C11.9612 30.2378 12.1611 30.2456 12.5063 30.2456C13.3802 30.2456 14.0167 30.1385 14.3845 30.0455C15.3279 31.4514 16.6235 31.9885 17.8738 31.9885C18.939 31.9885 20.0206 31.5968 21.0561 31.0291L20.864 30.3301Z" fill="#055A98"/>
<path d="M21.9062 30.6764L21.7227 29.9696C23.3017 29.118 24.7434 28.4347 27.044 28.2118C27.0901 29.0946 27.0284 30.208 27.6805 30.208C28.2779 30.208 29.5813 28.6645 31.0847 26.7301C31.2229 26.8607 31.4447 26.9991 31.6446 27.1523L31.2612 27.6512C29.7961 29.5403 28.5466 31.1526 27.5189 31.1526C26.5606 31.1526 26.1998 30.0235 26.185 29.179C24.7207 29.3253 23.34 29.8163 21.9062 30.6764Z" fill="#055A98"/>
<path d="M42.1956 15.2675C41.5974 15.2675 41.4287 14.9367 41.4287 14.4691C41.4287 13.5019 42.0347 12.1124 42.4181 11.3211H41.4896C41.007 12.2579 39.1054 15.2596 38.0776 16.5037L38.668 17.1401C39.2202 16.5263 39.8262 15.4825 40.4853 14.4535H40.6079C40.6079 14.5074 40.6009 14.5684 40.6009 14.6224C40.6009 15.4903 41.0452 16.1346 42.1417 16.1346C42.8164 16.1346 43.8746 15.7968 44.8719 15.459C45.6997 15.1752 46.4588 14.8835 46.8344 14.7764V13.8553C46.4049 13.9851 45.531 14.3229 44.6259 14.638C43.6755 14.968 42.7399 15.2675 42.1956 15.2675Z" fill="#055A98"/>
<path d="M44.2431 18.0547C45.163 17.6637 46.8116 17.003 47.7628 16.6574V15.7207C45.8534 16.4275 42.5023 17.817 40.2173 19.061C40.279 19.1369 40.678 19.6975 40.7233 19.7671C41.6894 19.3675 42.5562 19.1064 43.338 19.1064C44.4352 19.1064 45.3317 19.1064 46.835 18.7529V18.0469C45.9916 18.2009 45.0943 18.3847 44.5117 18.3847C44.1665 18.3847 44.0666 18.3385 44.0666 18.2236C44.0666 18.1548 44.1127 18.1087 44.2431 18.0547Z" fill="#055A98"/>
<path d="M24.5981 22.3681L24.2295 23.075H28.1483L27.857 22.3681H24.5981Z" fill="#055A98"/>
<path d="M10.4814 26.5833C10.8953 26.5833 11.2327 26.4449 11.5552 26.3151C11.8613 26.1915 12.1682 26.0688 12.5821 26.0688C13.5638 26.0688 14.7751 26.545 15.841 26.9977C15.9027 27.0212 15.9715 27.036 16.0402 27.036C16.2097 27.036 16.3401 26.9594 16.4236 26.7983L16.5619 26.545C15.3889 25.8616 13.5177 25.1321 12.5439 25.1321C12.0995 25.1321 11.777 25.2478 11.4709 25.3698C11.1257 25.5089 10.8266 25.6544 10.5119 25.6544C9.73793 25.6544 7.75198 24.8865 7.75198 24.1421C7.75198 23.2672 10.9109 22.9294 11.2561 22.9294L11.57 22.2147C9.27796 22.2147 6.54776 23.0209 6.54776 24.0882C6.54776 24.3955 6.72425 24.5487 6.72425 24.8326C6.72425 25.2165 6.54776 25.4777 6.54776 25.9077C6.54776 26.1915 6.71644 26.5528 6.91559 26.8679C7.13035 27.1979 7.38337 27.4121 7.38337 27.6889C7.38337 27.8961 7.24593 28.1416 7.24593 28.6256C7.24593 29.6617 7.83632 30.2919 8.98588 31.5273L9.21626 31.7728C8.26585 32.1419 6.49387 32.9097 6.07997 33.0857C4.64615 33.6846 4.28613 34.4141 4.28613 35.5659C4.28613 36.0108 4.28613 36.5175 4.31659 36.9702H4.59226C5.16782 36.9702 5.23655 36.6254 5.23655 36.2954C5.23655 36.0726 5.22874 35.8192 5.22874 35.5424C5.23655 34.906 5.25998 34.3375 6.28692 33.877C6.70161 33.6924 8.73285 32.8636 10.244 32.2185C10.6883 32.0262 11.1023 31.8651 11.5622 31.8651C12.0761 31.8651 12.6665 32.0879 13.4029 32.5258C14.0238 32.8941 14.6759 33.393 15.1897 33.9684L15.841 33.4696C15.2811 32.8097 14.5072 32.2185 13.7325 31.758C12.9578 31.2974 12.2682 31.0285 11.6856 31.0285C11.4326 31.0285 11.2256 31.0746 11.0491 31.1207C10.8422 31.1747 10.6501 31.2357 10.4049 31.2357C10.1214 31.2357 9.88319 31.1669 9.53801 30.7673C9.40759 30.6219 8.57979 29.6773 8.40329 29.4013C8.31895 29.2707 8.16589 29.0096 8.16589 28.7023C8.16589 28.5717 8.18853 28.4184 8.26585 28.28C8.97807 28.8328 9.86054 29.1706 10.9336 29.3012L10.7883 28.5717C9.24672 28.1651 7.60595 26.8061 7.60595 25.9312C7.60595 25.7466 7.65202 25.6161 7.72153 25.455C8.31895 26.0078 9.72232 26.5833 10.4814 26.5833Z" fill="#055A98"/>
<path d="M21.5156 26.7218C22.4817 26.0385 23.4781 25.9618 24.2833 25.9618C24.7667 25.9618 25.3337 26.0306 25.9319 26.1073C26.4153 26.169 26.8518 26.2152 27.3735 26.2152C28.4239 26.2152 29.4821 25.8312 29.9421 25.6311C30.0725 25.7929 30.295 26.008 30.4715 26.1612C30.249 26.2996 28.8386 27.0667 27.3969 27.0667C26.7605 27.0667 26.1545 26.9908 25.6328 26.9212C25.1728 26.8602 24.6746 26.8063 24.1912 26.8063C23.6625 26.8063 22.5965 26.9595 21.9373 27.2747L21.5156 26.7218Z" fill="#055A98"/>
<path d="M35.7547 29.4625C34.6044 31.8888 32.8558 33.6544 31.062 34.6755C30.2107 35.1588 29.4438 35.4739 27.7882 35.4739H24.2068C22.9268 35.4739 22.1217 35.6428 21.493 35.8038C20.8175 35.9805 20.3888 36.1565 19.7062 36.1565C18.6941 36.1565 17.7585 35.6576 17.3063 35.1822L18.1498 34.5145L17.7281 33.953C17.4828 34.1305 14.4848 36.3488 13.8553 36.8477L13.8171 36.825C13.8327 36.6718 13.8327 36.5334 13.8327 36.395C13.8327 34.706 13.0502 34.2986 11.8624 33.8232L11.0572 34.2986C12.6902 34.8444 13.0963 35.2815 13.0963 36.5021C13.0963 37.4701 12.7511 37.8532 12.2528 38.1457C11.739 38.4451 11.1025 38.5827 10.5433 38.5827C10.3051 38.5827 10.1982 38.6289 10.1138 38.7133C10.0217 38.8056 9.97559 38.944 9.97559 39.1356V39.4045H10.1677C11.1946 39.4045 12.1458 39.2435 13.1884 38.4217L16.5855 35.7655C17.0682 36.3183 18.288 37.0862 19.7289 37.0862C20.5418 37.0862 21.0635 36.886 21.8148 36.6944C22.3974 36.5482 22.9651 36.4176 24.2068 36.4176H27.8031C29.6438 36.4176 30.5333 36.0337 31.5141 35.4817C33.6461 34.2838 35.4634 32.2571 36.4911 29.9301C36.2225 29.762 35.9695 29.608 35.7547 29.4625Z" fill="#055A98"/>
<path d="M29.9809 32.3498C30.9087 30.8603 31.7365 29.5396 33.7685 28.4653C33.5537 28.3347 33.2476 28.1353 33.0859 28.0274C32.2964 28.373 31.5147 29.0635 30.8477 29.7625C29.314 31.3592 29.4514 32.2802 27.8341 32.9027C27.4272 33.0559 26.9289 33.2248 26.2925 33.371C25.9168 32.2114 24.9742 31.0597 23.977 31.0597C23.2866 31.0597 22.4893 31.4201 21.5693 31.8275C20.4885 32.3037 19.499 32.8487 19.1851 33.0559L19.6068 33.6244C19.9285 33.4469 20.8563 32.9863 21.7841 32.5875C22.5892 32.2419 23.3178 31.9581 23.8083 31.9581C24.5978 31.9581 25.1117 32.8565 25.3959 33.5774C24.3604 33.8237 22.6579 33.8847 22.1449 33.8847C21.9067 33.8847 21.8223 33.923 21.738 33.9926C21.6614 34.0614 21.5998 34.1842 21.5615 34.3531L21.5006 34.6143H22.0519C24.9203 34.6143 27.6271 34.1615 29.3671 33.102C29.6131 33.1716 29.8278 33.217 30.1035 33.217C31.1 33.217 32.1277 32.672 32.772 32.1731C33.0016 31.9964 33.0555 31.8346 33.0555 31.6586C33.0555 31.5742 33.0477 31.4976 33.0399 31.4201L33.0094 31.1215C32.0895 31.8502 31.3226 32.396 30.3721 32.396C30.2035 32.396 30.0809 32.3803 29.9809 32.3498Z" fill="#055A98"/>
</svg>
