<svg width="111" height="24" viewBox="0 0 111 24" fill="none" xmlns="http://www.w3.org/2000/svg">
<path d="M67.5296 0C58.3276 0 50.8701 5.32056 50.8701 11.8913C50.8701 18.4621 58.3276 23.7826 67.5296 23.7826C76.7315 23.7826 84.189 18.4621 84.189 11.8913C84.189 5.32056 76.7315 0 67.5296 0ZM67.5296 18.244C61.1769 18.244 56.4233 14.9005 56.4233 11.9058C56.4233 8.91121 61.1769 5.56769 67.5296 5.56769C73.8823 5.56769 78.6359 8.91121 78.6359 11.9058C78.6359 14.9005 73.8968 18.244 67.5296 18.244Z" fill="#005BFF"/>
<path d="M12.8848 0.000244141C6.3141 0.000244141 0.993541 5.3208 0.979004 11.8916C0.979004 18.4623 6.29956 23.7829 12.8703 23.7974C19.4411 23.7974 24.7616 18.4768 24.7762 11.9061C24.7762 5.32081 19.4556 0.000244141 12.8848 0.000244141ZM19.223 11.8916C19.223 15.395 16.3883 18.2297 12.8848 18.2442C9.38142 18.2442 6.53215 15.4095 6.53215 11.9061C6.53215 8.40266 9.36688 5.5534 12.8703 5.5534C16.3737 5.5534 19.223 8.38812 19.223 11.8916Z" fill="#005BFF"/>
<path d="M46.5234 17.7073H37.0888L49.1255 1.81832C49.518 1.29499 49.1546 0.539062 48.4859 0.539062H31.1868C29.4714 0.539062 28.0032 2.10906 28.3666 3.88258C28.6283 5.19092 29.8494 6.07767 31.1868 6.07767H38.9351L26.8838 21.9812C26.4913 22.5045 26.8548 23.2459 27.5089 23.2459H46.4216C47.759 23.2459 48.9802 22.3592 49.2418 21.0508C49.6052 19.2628 48.2388 17.7073 46.5234 17.7073Z" fill="#005BFF"/>
<path d="M110.021 3.31463V22.4599C110.021 22.6344 109.963 22.8088 109.847 22.9542C109.571 23.3031 109.062 23.3612 108.713 23.085L93.7107 11.1792V20.4829C93.7107 22.0529 92.4169 23.3031 90.8469 23.2595C89.3351 23.2159 88.1576 21.9221 88.1576 20.4102V1.3376C88.1576 1.14862 88.2157 0.974172 88.332 0.828802C88.6082 0.49445 89.117 0.436299 89.4514 0.712503L104.453 12.6183V3.38732C104.453 1.87547 105.631 0.596209 107.128 0.538061C108.713 0.479913 110.021 1.74463 110.021 3.31463Z" fill="#005BFF"/>
</svg>
