<svg width="120" height="52" viewBox="0 0 120 52" fill="none" xmlns="http://www.w3.org/2000/svg">
<path d="M110.522 37.0435C112.708 37.0435 114.257 36.6546 115.41 35.8169V32.0171C114.226 32.8249 112.799 33.3336 110.795 33.3336C107.425 33.3336 106.029 30.7605 106.029 26.6915C106.029 22.4131 107.729 20.229 110.826 20.229C112.647 20.229 114.439 20.8573 115.38 21.4557V17.5064C114.378 16.9678 112.647 16.5789 110.279 16.5789C104.237 16.5789 101.11 20.8573 101.11 26.8411C101.14 33.3934 104.207 37.0435 110.522 37.0435ZM80.9799 35.3082V31.5085C79.5225 32.4958 77.0329 33.3635 74.7557 33.3635C71.2944 33.3635 69.9889 31.7479 69.7763 28.4568H81.1925V26.0034C81.1925 19.1519 78.1259 16.5789 73.4198 16.5789C67.651 16.5789 64.9184 20.9171 64.9184 26.871C64.9184 33.7225 68.3493 37.0435 74.361 37.0435C77.3668 37.0435 79.5833 36.2357 80.9799 35.3082ZM37.6533 16.9379V24.7169H31.338V16.9379H26.6016V36.6546H31.338V28.4268H37.6533V36.6546H42.3898V16.9379H37.6533ZM63.7343 32.9446H61.6393V16.9379H47.855V18.6134C47.855 23.4303 47.5513 29.6535 45.8814 32.9446H44.3633V41.1425H48.7355V36.6546H59.3318V41.1425H63.7039V32.9446H63.7343ZM96.0698 36.6546H101.444L93.8534 26.0333L100.533 16.9379H95.7662L89.0866 26.0333V16.9379H84.3501V36.6546H89.0866V26.9608L96.0698 36.6546ZM73.2983 20.229C75.6362 20.229 76.3649 22.1438 76.3649 24.6271V25.0161H69.7763C69.8978 21.8745 71.0515 20.229 73.2983 20.229ZM56.9028 32.9446H50.2232C51.5288 29.9826 51.8931 24.5972 51.8931 21.1864V20.588H56.9028V32.9446Z" fill="black"/>
<path d="M22.6547 36.6551H17.8271V13.1088H15.6714C11.7243 13.1088 9.65972 15.0535 9.65972 17.9557C9.65972 21.2468 11.0867 22.7726 14.0318 24.7174L16.4608 26.333L9.47755 36.6551H4.28564L10.5706 27.44C6.9575 24.8969 4.92325 22.4136 4.92325 18.2249C4.92325 12.9891 8.62741 9.42871 15.641 9.42871H22.6243V36.6551H22.6547Z" fill="#FC3F1D"/>
</svg>
